<mxfile host="app.diagrams.net" modified="2024-01-14T07:58:29.997Z" agent="Mozilla/5.0 (Windows NT 10.0; Win64; x64) AppleWebKit/537.36 (KHTML, like Gecko) Chrome/120.0.0.0 Safari/537.36" etag="lZM8HjyTR112C1IbAvdb" version="22.1.18" type="github">
  <diagram name="第 1 页" id="qrdvi6JPUX82MHN96o6e">
    <mxGraphModel dx="715" dy="390" grid="0" gridSize="10" guides="1" tooltips="1" connect="1" arrows="1" fold="1" page="1" pageScale="1" pageWidth="827" pageHeight="1169" math="0" shadow="0">
      <root>
        <mxCell id="0" />
        <mxCell id="1" parent="0" />
        <mxCell id="XrR6xecaoihYYggqQL5T-5" value="" style="shape=parallelogram;perimeter=parallelogramPerimeter;whiteSpace=wrap;html=1;fixedSize=1;" parent="1" vertex="1">
          <mxGeometry x="137" y="276" width="168" height="60" as="geometry" />
        </mxCell>
        <mxCell id="XrR6xecaoihYYggqQL5T-1" value="" style="rounded=0;whiteSpace=wrap;html=1;" parent="1" vertex="1">
          <mxGeometry x="137" y="235" width="8" height="51" as="geometry" />
        </mxCell>
        <mxCell id="XrR6xecaoihYYggqQL5T-2" value="" style="rounded=0;whiteSpace=wrap;html=1;" parent="1" vertex="1">
          <mxGeometry x="150" y="235" width="55" height="35" as="geometry" />
        </mxCell>
        <mxCell id="XrR6xecaoihYYggqQL5T-3" value="焊枪" style="text;html=1;strokeColor=none;fillColor=none;align=center;verticalAlign=middle;whiteSpace=wrap;rounded=0;" parent="1" vertex="1">
          <mxGeometry x="67" y="228" width="60" height="30" as="geometry" />
        </mxCell>
        <mxCell id="XrR6xecaoihYYggqQL5T-4" value="" style="endArrow=none;html=1;rounded=0;entryX=0.5;entryY=1;entryDx=0;entryDy=0;" parent="1" target="XrR6xecaoihYYggqQL5T-1" edge="1">
          <mxGeometry width="50" height="50" relative="1" as="geometry">
            <mxPoint x="141" y="296" as="sourcePoint" />
            <mxPoint x="140" y="289" as="targetPoint" />
          </mxGeometry>
        </mxCell>
        <mxCell id="XrR6xecaoihYYggqQL5T-6" value="" style="curved=1;endArrow=classic;html=1;rounded=0;exitX=0;exitY=0.5;exitDx=0;exitDy=0;entryX=1;entryY=0.5;entryDx=0;entryDy=0;" parent="1" source="XrR6xecaoihYYggqQL5T-19" target="XrR6xecaoihYYggqQL5T-5" edge="1">
          <mxGeometry width="50" height="50" relative="1" as="geometry">
            <mxPoint x="171" y="330" as="sourcePoint" />
            <mxPoint x="221" y="280" as="targetPoint" />
            <Array as="points">
              <mxPoint x="223" y="292" />
              <mxPoint x="265" y="294" />
            </Array>
          </mxGeometry>
        </mxCell>
        <mxCell id="XrR6xecaoihYYggqQL5T-7" value="焊缝" style="text;html=1;strokeColor=none;fillColor=none;align=center;verticalAlign=middle;whiteSpace=wrap;rounded=0;" parent="1" vertex="1">
          <mxGeometry x="67" y="286" width="60" height="30" as="geometry" />
        </mxCell>
        <mxCell id="XrR6xecaoihYYggqQL5T-15" value="" style="group;rotation=0;" parent="1" vertex="1" connectable="0">
          <mxGeometry x="376" y="165" width="33" height="26" as="geometry" />
        </mxCell>
        <mxCell id="XrR6xecaoihYYggqQL5T-8" value="" style="endArrow=classic;html=1;rounded=0;" parent="XrR6xecaoihYYggqQL5T-15" edge="1">
          <mxGeometry width="50" height="50" relative="1" as="geometry">
            <mxPoint x="11" y="20" as="sourcePoint" />
            <mxPoint x="11" y="1" as="targetPoint" />
          </mxGeometry>
        </mxCell>
        <mxCell id="XrR6xecaoihYYggqQL5T-9" value="" style="endArrow=classic;html=1;rounded=0;" parent="XrR6xecaoihYYggqQL5T-15" edge="1">
          <mxGeometry width="50" height="50" relative="1" as="geometry">
            <mxPoint x="11" y="20" as="sourcePoint" />
            <mxPoint x="27" y="19" as="targetPoint" />
          </mxGeometry>
        </mxCell>
        <mxCell id="XrR6xecaoihYYggqQL5T-10" value="" style="endArrow=classic;html=1;rounded=0;" parent="XrR6xecaoihYYggqQL5T-15" edge="1">
          <mxGeometry width="50" height="50" relative="1" as="geometry">
            <mxPoint x="11" y="20" as="sourcePoint" />
            <mxPoint x="24" y="5" as="targetPoint" />
          </mxGeometry>
        </mxCell>
        <mxCell id="XrR6xecaoihYYggqQL5T-12" value="&lt;font style=&quot;font-size: 7px;&quot;&gt;Z&lt;/font&gt;" style="text;html=1;strokeColor=none;fillColor=none;align=center;verticalAlign=middle;whiteSpace=wrap;rounded=0;rotation=0;" parent="XrR6xecaoihYYggqQL5T-15" vertex="1">
          <mxGeometry width="11" height="6.190476190476191" as="geometry" />
        </mxCell>
        <mxCell id="XrR6xecaoihYYggqQL5T-13" value="&lt;span style=&quot;font-size: 7px;&quot;&gt;X&lt;/span&gt;" style="text;html=1;strokeColor=none;fillColor=none;align=center;verticalAlign=middle;whiteSpace=wrap;rounded=0;rotation=0;" parent="XrR6xecaoihYYggqQL5T-15" vertex="1">
          <mxGeometry x="19" y="20" width="11" height="6.190476190476191" as="geometry" />
        </mxCell>
        <mxCell id="XrR6xecaoihYYggqQL5T-14" value="&lt;font style=&quot;font-size: 7px;&quot;&gt;Y&lt;/font&gt;" style="text;html=1;strokeColor=none;fillColor=none;align=center;verticalAlign=middle;whiteSpace=wrap;rounded=0;rotation=0;" parent="XrR6xecaoihYYggqQL5T-15" vertex="1">
          <mxGeometry x="22" y="1" width="11" height="6.190476190476191" as="geometry" />
        </mxCell>
        <mxCell id="XrR6xecaoihYYggqQL5T-17" value="" style="curved=1;endArrow=none;html=1;rounded=0;exitX=0;exitY=0.5;exitDx=0;exitDy=0;entryX=1;entryY=0.5;entryDx=0;entryDy=0;endFill=0;" parent="1" source="XrR6xecaoihYYggqQL5T-5" target="XrR6xecaoihYYggqQL5T-16" edge="1">
          <mxGeometry width="50" height="50" relative="1" as="geometry">
            <mxPoint x="147" y="306" as="sourcePoint" />
            <mxPoint x="295" y="306" as="targetPoint" />
            <Array as="points">
              <mxPoint x="168" y="317" />
            </Array>
          </mxGeometry>
        </mxCell>
        <mxCell id="XrR6xecaoihYYggqQL5T-16" value="" style="ellipse;whiteSpace=wrap;html=1;aspect=fixed;" parent="1" vertex="1">
          <mxGeometry x="188" y="316" width="4" height="4" as="geometry" />
        </mxCell>
        <mxCell id="XrR6xecaoihYYggqQL5T-21" value="" style="curved=1;endArrow=none;html=1;rounded=0;exitX=1;exitY=0.5;exitDx=0;exitDy=0;entryX=1;entryY=0.5;entryDx=0;entryDy=0;startArrow=none;startFill=0;endFill=0;" parent="1" source="XrR6xecaoihYYggqQL5T-16" target="XrR6xecaoihYYggqQL5T-19" edge="1">
          <mxGeometry width="50" height="50" relative="1" as="geometry">
            <mxPoint x="188" y="318" as="sourcePoint" />
            <mxPoint x="295" y="306" as="targetPoint" />
            <Array as="points">
              <mxPoint x="193" y="319" />
              <mxPoint x="194" y="318" />
              <mxPoint x="210" y="311" />
            </Array>
          </mxGeometry>
        </mxCell>
        <mxCell id="XrR6xecaoihYYggqQL5T-19" value="" style="ellipse;whiteSpace=wrap;html=1;aspect=fixed;" parent="1" vertex="1">
          <mxGeometry x="223" y="293" width="4" height="4" as="geometry" />
        </mxCell>
        <mxCell id="XrR6xecaoihYYggqQL5T-30" value="" style="endArrow=classicThin;html=1;rounded=0;strokeWidth=0.522;endFill=1;" parent="1" edge="1">
          <mxGeometry width="50" height="50" relative="1" as="geometry">
            <mxPoint x="147" y="307" as="sourcePoint" />
            <mxPoint x="147" y="293" as="targetPoint" />
          </mxGeometry>
        </mxCell>
        <mxCell id="XrR6xecaoihYYggqQL5T-31" value="" style="endArrow=classicThin;html=1;rounded=0;strokeWidth=0.522;endFill=1;" parent="1" edge="1">
          <mxGeometry width="50" height="50" relative="1" as="geometry">
            <mxPoint x="189.89" y="316" as="sourcePoint" />
            <mxPoint x="189.89" y="302" as="targetPoint" />
          </mxGeometry>
        </mxCell>
        <mxCell id="XrR6xecaoihYYggqQL5T-32" value="" style="endArrow=classicThin;html=1;rounded=0;strokeWidth=0.522;endFill=1;" parent="1" edge="1">
          <mxGeometry width="50" height="50" relative="1" as="geometry">
            <mxPoint x="224.89" y="293" as="sourcePoint" />
            <mxPoint x="224.89" y="279" as="targetPoint" />
          </mxGeometry>
        </mxCell>
        <mxCell id="XrR6xecaoihYYggqQL5T-34" value="" style="endArrow=classicThin;html=1;rounded=0;strokeWidth=0.522;endFill=1;" parent="1" edge="1">
          <mxGeometry width="50" height="50" relative="1" as="geometry">
            <mxPoint x="294" y="305" as="sourcePoint" />
            <mxPoint x="294" y="291" as="targetPoint" />
          </mxGeometry>
        </mxCell>
        <mxCell id="XrR6xecaoihYYggqQL5T-35" value="" style="endArrow=classicThin;html=1;rounded=0;strokeWidth=0.522;endFill=1;" parent="1" edge="1">
          <mxGeometry width="50" height="50" relative="1" as="geometry">
            <mxPoint x="148" y="306.5" as="sourcePoint" />
            <mxPoint x="159" y="309" as="targetPoint" />
          </mxGeometry>
        </mxCell>
        <mxCell id="XrR6xecaoihYYggqQL5T-36" value="" style="endArrow=classicThin;html=1;rounded=0;strokeWidth=0.522;endFill=1;" parent="1" edge="1">
          <mxGeometry width="50" height="50" relative="1" as="geometry">
            <mxPoint x="147" y="306" as="sourcePoint" />
            <mxPoint x="156" y="296" as="targetPoint" />
          </mxGeometry>
        </mxCell>
        <mxCell id="XrR6xecaoihYYggqQL5T-37" value="&lt;span style=&quot;font-size: 7px;&quot;&gt;x&lt;/span&gt;" style="text;html=1;strokeColor=none;fillColor=none;align=center;verticalAlign=middle;whiteSpace=wrap;rounded=0;" parent="1" vertex="1">
          <mxGeometry x="143" y="308" width="16" height="8" as="geometry" />
        </mxCell>
        <mxCell id="XrR6xecaoihYYggqQL5T-38" value="&lt;span style=&quot;font-size: 7px;&quot;&gt;y&lt;/span&gt;" style="text;html=1;strokeColor=none;fillColor=none;align=center;verticalAlign=middle;whiteSpace=wrap;rounded=0;" parent="1" vertex="1">
          <mxGeometry x="150" y="293" width="16" height="8" as="geometry" />
        </mxCell>
        <mxCell id="XrR6xecaoihYYggqQL5T-39" value="&lt;span style=&quot;font-size: 7px;&quot;&gt;z&lt;/span&gt;" style="text;html=1;strokeColor=none;fillColor=none;align=center;verticalAlign=middle;whiteSpace=wrap;rounded=0;" parent="1" vertex="1">
          <mxGeometry x="137" y="285" width="16" height="8" as="geometry" />
        </mxCell>
        <mxCell id="XrR6xecaoihYYggqQL5T-40" value="" style="endArrow=classicThin;html=1;rounded=0;strokeWidth=0.522;endFill=1;" parent="1" target="XrR6xecaoihYYggqQL5T-5" edge="1">
          <mxGeometry width="50" height="50" relative="1" as="geometry">
            <mxPoint x="192" y="317.5" as="sourcePoint" />
            <mxPoint x="200" y="315" as="targetPoint" />
          </mxGeometry>
        </mxCell>
        <mxCell id="mQIY4NiD0DT4UJwngbeD-1" value="" style="rounded=0;whiteSpace=wrap;html=1;" vertex="1" parent="1">
          <mxGeometry x="72" y="540" width="33" height="10" as="geometry" />
        </mxCell>
        <mxCell id="mQIY4NiD0DT4UJwngbeD-2" value="" style="rounded=0;whiteSpace=wrap;html=1;" vertex="1" parent="1">
          <mxGeometry x="111" y="540" width="32" height="10" as="geometry" />
        </mxCell>
        <mxCell id="mQIY4NiD0DT4UJwngbeD-3" value="" style="endArrow=none;html=1;rounded=0;fillColor=#d80073;strokeColor=#A50040;" edge="1" parent="1">
          <mxGeometry width="50" height="50" relative="1" as="geometry">
            <mxPoint x="108" y="544" as="sourcePoint" />
            <mxPoint x="108" y="535" as="targetPoint" />
          </mxGeometry>
        </mxCell>
        <mxCell id="mQIY4NiD0DT4UJwngbeD-4" value="" style="endArrow=none;html=1;rounded=0;fillColor=#d80073;strokeColor=#A50040;" edge="1" parent="1">
          <mxGeometry width="50" height="50" relative="1" as="geometry">
            <mxPoint x="106" y="540" as="sourcePoint" />
            <mxPoint x="110" y="540" as="targetPoint" />
          </mxGeometry>
        </mxCell>
        <mxCell id="mQIY4NiD0DT4UJwngbeD-5" value="" style="shape=parallelogram;perimeter=parallelogramPerimeter;whiteSpace=wrap;html=1;fixedSize=1;" vertex="1" parent="1">
          <mxGeometry x="367.5" y="464" width="64" height="69" as="geometry" />
        </mxCell>
        <mxCell id="mQIY4NiD0DT4UJwngbeD-6" value="" style="shape=parallelogram;perimeter=parallelogramPerimeter;whiteSpace=wrap;html=1;fixedSize=1;" vertex="1" parent="1">
          <mxGeometry x="416.5" y="464" width="64" height="69" as="geometry" />
        </mxCell>
        <mxCell id="mQIY4NiD0DT4UJwngbeD-7" value="" style="shape=parallelogram;perimeter=parallelogramPerimeter;whiteSpace=wrap;html=1;fixedSize=1;" vertex="1" parent="1">
          <mxGeometry x="367.5" y="460" width="64" height="69" as="geometry" />
        </mxCell>
        <mxCell id="mQIY4NiD0DT4UJwngbeD-8" value="" style="shape=parallelogram;perimeter=parallelogramPerimeter;whiteSpace=wrap;html=1;fixedSize=1;" vertex="1" parent="1">
          <mxGeometry x="416.5" y="460" width="64" height="69" as="geometry" />
        </mxCell>
        <mxCell id="mQIY4NiD0DT4UJwngbeD-9" value="" style="endArrow=none;html=1;rounded=0;entryX=0;entryY=1;entryDx=0;entryDy=0;exitX=0;exitY=1;exitDx=0;exitDy=0;" edge="1" parent="1" source="mQIY4NiD0DT4UJwngbeD-5" target="mQIY4NiD0DT4UJwngbeD-7">
          <mxGeometry width="50" height="50" relative="1" as="geometry">
            <mxPoint x="321.5" y="548" as="sourcePoint" />
            <mxPoint x="371.5" y="498" as="targetPoint" />
          </mxGeometry>
        </mxCell>
        <mxCell id="mQIY4NiD0DT4UJwngbeD-10" value="" style="endArrow=none;html=1;rounded=0;entryX=0;entryY=1;entryDx=0;entryDy=0;exitX=0;exitY=1;exitDx=0;exitDy=0;" edge="1" parent="1">
          <mxGeometry width="50" height="50" relative="1" as="geometry">
            <mxPoint x="411.5" y="533" as="sourcePoint" />
            <mxPoint x="411.5" y="529" as="targetPoint" />
          </mxGeometry>
        </mxCell>
        <mxCell id="mQIY4NiD0DT4UJwngbeD-11" value="" style="endArrow=none;html=1;rounded=0;entryX=0;entryY=1;entryDx=0;entryDy=0;exitX=0;exitY=1;exitDx=0;exitDy=0;" edge="1" parent="1">
          <mxGeometry width="50" height="50" relative="1" as="geometry">
            <mxPoint x="416.5" y="533" as="sourcePoint" />
            <mxPoint x="416.5" y="529" as="targetPoint" />
          </mxGeometry>
        </mxCell>
        <mxCell id="mQIY4NiD0DT4UJwngbeD-12" value="" style="endArrow=none;html=1;rounded=0;exitX=0;exitY=1;exitDx=0;exitDy=0;" edge="1" parent="1">
          <mxGeometry width="50" height="50" relative="1" as="geometry">
            <mxPoint x="460.5" y="533" as="sourcePoint" />
            <mxPoint x="460.5" y="529" as="targetPoint" />
          </mxGeometry>
        </mxCell>
        <mxCell id="mQIY4NiD0DT4UJwngbeD-13" value="" style="endArrow=none;html=1;rounded=0;entryX=0;entryY=1;entryDx=0;entryDy=0;exitX=0;exitY=1;exitDx=0;exitDy=0;" edge="1" parent="1">
          <mxGeometry width="50" height="50" relative="1" as="geometry">
            <mxPoint x="480.5" y="464" as="sourcePoint" />
            <mxPoint x="480.5" y="460" as="targetPoint" />
          </mxGeometry>
        </mxCell>
        <mxCell id="mQIY4NiD0DT4UJwngbeD-14" value="" style="endArrow=none;html=1;rounded=0;entryX=0;entryY=1;entryDx=0;entryDy=0;exitX=0;exitY=1;exitDx=0;exitDy=0;" edge="1" parent="1">
          <mxGeometry width="50" height="50" relative="1" as="geometry">
            <mxPoint x="431.5" y="464" as="sourcePoint" />
            <mxPoint x="431.5" y="460" as="targetPoint" />
          </mxGeometry>
        </mxCell>
        <mxCell id="mQIY4NiD0DT4UJwngbeD-16" value="" style="rounded=0;whiteSpace=wrap;html=1;rotation=0;" vertex="1" parent="1">
          <mxGeometry x="428.5" y="396" width="15" height="38" as="geometry" />
        </mxCell>
        <mxCell id="mQIY4NiD0DT4UJwngbeD-17" value="" style="endArrow=none;html=1;rounded=0;entryX=0.5;entryY=1;entryDx=0;entryDy=0;fillColor=#e51400;strokeColor=#B20000;" edge="1" parent="1" target="mQIY4NiD0DT4UJwngbeD-16">
          <mxGeometry width="50" height="50" relative="1" as="geometry">
            <mxPoint x="364.5" y="487" as="sourcePoint" />
            <mxPoint x="342.5" y="434" as="targetPoint" />
          </mxGeometry>
        </mxCell>
        <mxCell id="mQIY4NiD0DT4UJwngbeD-18" value="" style="endArrow=none;html=1;rounded=0;fillColor=#e51400;strokeColor=#B20000;" edge="1" parent="1">
          <mxGeometry width="50" height="50" relative="1" as="geometry">
            <mxPoint x="436.5" y="434" as="sourcePoint" />
            <mxPoint x="488.5" y="487" as="targetPoint" />
          </mxGeometry>
        </mxCell>
        <mxCell id="mQIY4NiD0DT4UJwngbeD-19" value="" style="endArrow=none;html=1;rounded=0;exitX=0.193;exitY=0.393;exitDx=0;exitDy=0;exitPerimeter=0;fillColor=#e51400;strokeColor=#B20000;" edge="1" parent="1" source="mQIY4NiD0DT4UJwngbeD-7">
          <mxGeometry width="50" height="50" relative="1" as="geometry">
            <mxPoint x="376.496" y="486.99600000000004" as="sourcePoint" />
            <mxPoint x="364.64" y="487.19" as="targetPoint" />
          </mxGeometry>
        </mxCell>
        <mxCell id="mQIY4NiD0DT4UJwngbeD-20" value="" style="endArrow=none;html=1;rounded=0;exitX=0.893;exitY=0.384;exitDx=0;exitDy=0;exitPerimeter=0;fillColor=#e51400;strokeColor=#B20000;" edge="1" parent="1" source="mQIY4NiD0DT4UJwngbeD-8">
          <mxGeometry width="50" height="50" relative="1" as="geometry">
            <mxPoint x="485.5" y="541" as="sourcePoint" />
            <mxPoint x="488.5" y="487" as="targetPoint" />
          </mxGeometry>
        </mxCell>
        <mxCell id="mQIY4NiD0DT4UJwngbeD-21" value="" style="endArrow=none;html=1;rounded=0;entryX=0.909;entryY=0.256;entryDx=0;entryDy=0;entryPerimeter=0;exitX=0.224;exitY=0.307;exitDx=0;exitDy=0;exitPerimeter=0;fillColor=#e51400;strokeColor=#B20000;" edge="1" parent="1" source="mQIY4NiD0DT4UJwngbeD-7" target="mQIY4NiD0DT4UJwngbeD-5">
          <mxGeometry width="50" height="50" relative="1" as="geometry">
            <mxPoint x="300.5" y="490" as="sourcePoint" />
            <mxPoint x="350.5" y="440" as="targetPoint" />
          </mxGeometry>
        </mxCell>
        <mxCell id="mQIY4NiD0DT4UJwngbeD-22" value="" style="endArrow=none;html=1;rounded=0;entryX=0.902;entryY=0.334;entryDx=0;entryDy=0;entryPerimeter=0;fillColor=#e51400;strokeColor=#B20000;" edge="1" parent="1" target="mQIY4NiD0DT4UJwngbeD-8">
          <mxGeometry width="50" height="50" relative="1" as="geometry">
            <mxPoint x="430.5" y="482" as="sourcePoint" />
            <mxPoint x="472.5" y="483" as="targetPoint" />
          </mxGeometry>
        </mxCell>
        <mxCell id="mQIY4NiD0DT4UJwngbeD-23" value="" style="endArrow=none;html=1;rounded=0;entryX=0.898;entryY=0.333;entryDx=0;entryDy=0;entryPerimeter=0;fillColor=#e51400;strokeColor=#B20000;" edge="1" parent="1" target="mQIY4NiD0DT4UJwngbeD-5">
          <mxGeometry width="50" height="50" relative="1" as="geometry">
            <mxPoint x="428.5" y="487" as="sourcePoint" />
            <mxPoint x="425.5" y="487" as="targetPoint" />
          </mxGeometry>
        </mxCell>
        <mxCell id="mQIY4NiD0DT4UJwngbeD-24" value="&lt;font style=&quot;font-size: 10px;&quot;&gt;激光发生器&lt;/font&gt;" style="text;html=1;strokeColor=none;fillColor=none;align=center;verticalAlign=middle;whiteSpace=wrap;rounded=0;" vertex="1" parent="1">
          <mxGeometry x="326.5" y="402" width="58" height="22" as="geometry" />
        </mxCell>
        <mxCell id="mQIY4NiD0DT4UJwngbeD-25" value="" style="endArrow=classic;html=1;rounded=0;entryX=0.092;entryY=0.436;entryDx=0;entryDy=0;entryPerimeter=0;dashed=1;" edge="1" parent="1" target="mQIY4NiD0DT4UJwngbeD-16">
          <mxGeometry width="50" height="50" relative="1" as="geometry">
            <mxPoint x="384.5" y="414" as="sourcePoint" />
            <mxPoint x="246.5" y="419" as="targetPoint" />
          </mxGeometry>
        </mxCell>
        <mxCell id="mQIY4NiD0DT4UJwngbeD-26" value="&lt;font style=&quot;font-size: 10px;&quot;&gt;激光条纹&lt;/font&gt;" style="text;html=1;strokeColor=none;fillColor=none;align=center;verticalAlign=middle;whiteSpace=wrap;rounded=0;" vertex="1" parent="1">
          <mxGeometry x="296.5" y="450" width="58" height="22" as="geometry" />
        </mxCell>
        <mxCell id="mQIY4NiD0DT4UJwngbeD-27" value="" style="endArrow=classic;html=1;rounded=0;dashed=1;" edge="1" parent="1">
          <mxGeometry width="50" height="50" relative="1" as="geometry">
            <mxPoint x="345.5" y="460" as="sourcePoint" />
            <mxPoint x="398.5" y="481" as="targetPoint" />
          </mxGeometry>
        </mxCell>
        <mxCell id="mQIY4NiD0DT4UJwngbeD-29" value="" style="shape=image;verticalLabelPosition=bottom;labelBackgroundColor=default;verticalAlign=top;aspect=fixed;imageAspect=0;image=data:image/png,iVBORw0KGgoAAAANSUhEUgAAAu0AAAH3CAYAAAAPG2EHAAAAAXNSR0IArs4c6QAAAARnQU1BAACxjwv8YQUAAAAJcEhZcwAADsMAAA7DAcdvqGQAAE0nSURBVHhe7d29q2VpXv7/6nEEIxlExEBkgjEa0QGTAQXnC/0HmNvSE7SBmbmC/QvmPzCzg2lmzAUjoUFFBQODGWVAcAJFA0UQnwJBsX917a53efWn77XP3ufsU3VX1fvVHNZa9+PaT2tda53dp9568uTJx09/JEmSJG3qc8+WkiRJkjZlaJckSZI2Z2iXJEmSNmdolyRJkjZnaJckSZI2Z2iXJEmSNmdolyRJkjZnaJckSZI2Z2iXJEmSNmdolyRJkjZnaJckSZI2Z2iXJEmSNmdolyRJkjZnaJckSZI2Z2iXJEmSNmdolyRJkjZnaJckSZI2Z2iXJEmSNmdolyRJkjZnaJckSZI2Z2iXJEmSNmdolyRJkjZnaJckSZI2Z2iXJEmSNmdolyRJkjZnaJckSZI2Z2iXJEmSNmdolyRJkjZnaJckSZI2Z2iXJEmSNmdolyRJkjZnaJckSZI2Z2iXJEmSNmdolyRJkjZnaJckSZI2Z2iXJEmSNmdolyRJkjZnaJckSZI2Z2iXJEmSNmdolyRJkjZnaJckSZI2Z2iXJEmSNmdolyRJkjZnaJckSZI2Z2iXJEmSNmdolyRJkjZnaJckSZI2Z2iXJEmSNmdolyRJkjZnaJckSZI2Z2iXJEmSNmdolyRJkjZnaJckSZI2Z2iXJEmSNmdolyRJkjZnaJckSZI2Z2iXJEmSNmdolyRJkjZnaJckSZI2Z2iXJEmSNmdolyRJkjZnaJckSZI2Z2iXJEmSNmdolyRJkjZnaJckSZI2Z2iXJEmSNmdolyRJkjZnaJckSZI2Z2iXJEmSNmdolyRJkjZnaJckSZI2Z2iXJEmSNmdolyRJkjZnaJckSZI2Z2iXJEmSNmdolyRJkjZnaJckSZI2Z2iXJEmSNmdolyRJkjZnaJckSZI2Z2iXJEmSNmdolyRJkjZnaJckSZI2Z2iXJEmSNmdolyRJkjZnaJckSZI2Z2iXJEmSNmdolyRJkjZnaJckSZI2Z2iXJEmSNmdolyRJkjZnaJckSZI2Z2iXJEmSNmdolyRJkjZnaJckSZI2Z2iXJEmSNmdolyRJkjZnaJckSZI2Z2iXJEmSNmdolyRJkjZnaJckSZI2Z2iXJEmSNmdolyRJkjZnaJckSZI2Z2iXJEmSNmdolyRJkjZnaJckSZI2Z2iXJEmSNmdolyRJkjZnaJckSZI2Z2iXJEmSNmdolyRJkjZnaJckSZI2Z2iXJEmSNmdolyRJkjZnaJckSZI2Z2iXJEmSNmdolyRJkjZnaJckSZI2Z2iXJEmSNmdolyRJkjZnaJckSZI2Z2iXJEmSNmdolyRJkjZnaJckSZI2Z2iXJEmSNmdolyRJkjZnaJckSZI2Z2iXJEmSNmdolyRJkjZnaJckSZI2Z2iXJEmSNmdolyRJkjZnaJckSZI2Z2iXJEmSNmdolyRJkjZnaJckSZI2Z2iXJEmSNmdolyRJkjZnaJckSZI2Z2iXJEmSNmdolyRJkjZnaJckSZI2Z2iXJEmSNmdolyRJkjZnaJckSZI2Z2iXJJ186UtferYmSdqNoV2SJEna3FtPfz7+ZFWSJEnSjrzTLkmSJG3O0C5JkiRtztAuSZIkbc7QLkmSJG3O0C5JkiRtztAuSZIkbc7QLkmSJG3O0C5JkiRtztAuSZIkbc7QLkmSJG3O0C5JkiRtztAuSZIkbc7QLkmSJG3O0C5JkiRtztAuSZIkbc7QLkmSJG3O0C5JkiRtztAuSZIkbc7QLkmSJG3O0C5JkiRtztAuSZIkbc7QLkmSJG3O0C5JkiRtztAuSZIkbc7QLkmSJG3O0C5JkiRtztAuSZIkbc7QLkmSJG3O0C5JkiRtztAuSS/Yl770pWdrkiRdxtAuSS/Y97///Wdr1zPwS9Kb6a2nPx9/sipJkiRpR95plyRJkjZnaJckSZI2Z2iXJEmSNmdolyRJkjZnaJckSZI2Z2iXJEmSNmdolyRJkjZnaJckSZI2Z2iXJEmSNmdolyRJkjZnaJckSZI2Z2iXJEmSNmdolyRJkjZnaJckSZI2Z2iXJEmSNmdolyRJkjZnaJckSZI2Z2iXJEmSNmdolyRJkjZnaJckSZI2Z2iXJEmSNmdolyRJkjZnaJckSZI2Z2iXJEmSNmdolyRJkjZnaJckSZI2Z2iXJEmSNmdolyRJkjZnaJckSZI2Z2iXJEmSNmdolyRJkjZnaJckSZI2Z2iXJEmSNmdolyRJkjZnaJckSZI2Z2iXJEmSNvdoof1LX/rSs7XL3aePJEmS9Lr7XIIyYXmus1yVo7eP2q6W/PT297///dP2fTBW9Po5l7aTJEmSXqa3ngbXj5+t3wtB+1wAThvqe/0Sd7XvoJ92tO/y6DLG67aUYfaXJEmSXpZ7h/ZV0L2l+4x/633q8VjPMno9Vu1WS9oE5ffxkL6SJEl6tbz1ta997eN/+Id/eLb5cvzET/zEk5e9D7vocB93bR+h3Vwi2402mNuSJEl6eT6XsJzQjKyzPZeY23HUNs6Nk58Z2Fdj3OVcn/uMd61bzdHBOu7angjatJtLZLt/CPX5AeuzrMu7LmbbttqmrNenc3WSJElvgtOd9mfrz80gT6hO2Vw/F1Y7jN8VarttzPZzrNV+dFnMMduqzWqsOCq/xkP6vioI/o+pn8fVfJQd7UvXR69H912Vz3VJkqQXYRnaVwit7ZoguurfqD/XrtvEXePFbNPj3zVOz9dLdP851mwbPU7rPliVvWlWz9VjIKRfo4N9L1c64N8V+O+qlx6b70FJ2tNb77zzzvPvtN8VFFOeNkdhatYftTty1/ig3a0xJnNn+8///M+f708vb6kfa+9Drzf2Y6X3jTF6GbP/ufFu6b7zrB7Dm85QpcdiaJekPb31/vvvn+605yC9CkYzMOWA/kd/9EdPvvrVry4D1FGwWpWv5opV//tYjc921n/oh37o9Lgpn+1xVH7krvbXjMd+tVXZXbrPXf2pz7LN/tT3WKu+XY/uSx/McXusmOPHqgxzjqN2oB1of26OlyXv33wmMbcbQWzVvpe6PZ9bSdJDne60J7z+13/917OiJ6cwm4CScB4dVrKe+kifGYZm24m5ZpvVOOi2c522OSnyGGhzhL49B/uVcVaPe+oxesl+0O9ojJTHqm6ac+yE/XqR+rno57H3g+epn7O5jlXf1VhgHNqcq792rEZb2uyAcL9CKCWg0m4VVucY5wIt4831V9nuj+N1eZ4l6XVyCu1ZIYgnIORgnYN2ggJB+Gi7UcdYQYDlJEA4SZusJyBTlnZf+9rXnpdlO0vGY/zGfvQJhvGCMM587DP7xfi0QddHr/NY6BeM2+NFytMeXc7+MG73i9mGsXgeKaeMPpGyfm7bHONIz7FqtyrvsszTzyPlR/1ilt/Car4V9vMu3W7Vh7JeRrc7GqPXY26DMWO2n1J/Tfnu7trvvLfz3mN9pT8zL9tO+4K7nj9J0ov3/OsxOQnmZMgJj22knFCbIEabrKd8dSJdteuy1vVzyQmk+3R9S1n2Nfsz63s8HiePi8c69yvmY2NuMF/vJ32Yf+7X1GOyj8FY6Zt1ymmfJW3YXul9yrLLmJd6xuj9SXlk/p5zSj117PNsx37O/aUtc7GeJW2pi24bzNPjzDbn9GO7FOMz10rXHa0/FGNlid5mvec7qusxjlzTtq3mn9gf1nGuPVZterxL5b2b9wNLZHui3TXu0+c+2Pee65K5V/0kSS/XW08T++Ffj/n/3n//tMyBm4N4Tn6/8Au/8ORv//ZvT+t9wkw7whUnhmzTZo7TfZHyDnK0D/owTraD9jMEsg+07ZN31r/4xS+eHgdo09LmT//0T5/3nWN0n/n4eJ5yxzvlPC8ZM3gOKUfqv/nNb57KGLvnYb0fG4+bbfYt5avXZM7JPqY+fWnD65fyyHZQN7FPzN/7EbN/6mP12xX6IHX5TQyPgbnSLnXBeGwHbYLxu/1cZ4zIdj8vs/80x5jtz/W91KVjrOZu1LfuM+tijhndbvbvdrHqS9u2KlvpdrMP8zDHJa5pexc+Mw/Be++cc21WdSmLW+yfJOnFORvaGwE+OuyynhNATgacOPuESV2kPGG2g3BkHV3GerDdbTP2DI+znrlj9m+rx3WJ+RjmnNPRPnT5XAcXApjPbY+b7Q7HCcYJvZHHx2swx6BPZL3rsNo39D5M7CPPL/NlDsbqsbPOkrLoxxW04bFkGWkzHw/rjL1a7/7UZcnFDXq+1Pc8kX5dzzhz3ixXMl6PzbjBGCs9x4u0eiy9H7Mu2/MvNIGythr/Uqv9oGw1f8z6lVnHe+eheJ/1eP3ePtLvz0a/rp9lt9p3SdLtXRzaH+pX33vvye988MFpnQuABDecC8i/VRcMffGAPmFyQTDDbSSw/uLTn4xBaOyx8eE3v/m8L+3Y17m+Qh9kuy9Ssm8x2/TYPUa3S/+M0+0ZG7RB2nz00UdP3n777edjsR9s52Td9eixsh7n5qINr0Pq+rEE26u+2e5lZD3714G4Q8ZqHRmj2wePNfsXvQ9zX2M17pyXfev97zZdFinvfeOxRo/RbehLeKfNXWGecVa6btXukvo4Gv8uqzEjj5fHdOnYacf+BP26LGa7lW6zGocypC5lvEbg9Z/lU7++Mbdxbjzqprvmnnqca/oe7bMk6Taef6e9ccJaBdpd5aKAk+q5/U5gf8jjSqCPhLvcdWU9CHsEv1/6pV968nu/93unslwwUJ8ld7wj21/5yleefOc733m+HYwbXZa2//qv/3rapjwYl/2a63Pc1f73emS71/sCoYPNxDiR9czFWEchiIsI5untYD9itjlC36Ad+8EY8zHM+eZ2P27W53Nx1KZ1fUtY5QKKfUWPRZinLBKaCF0pz/ZqbtAvaEP7Xs4LhSwzT18srNCOMMdYWQblaQfaRMbP+ioMMkb0fkWvY9bHbPMQjNWvAeur/e82t8B409H43Z42l+z3kWvbS5Ku89Z77733MSf/ecDtk+tDA/xDw/KrjDv3q8efugQzQm2w/MIXvnAK8mynTYf96GA323VZxsoFRC4kMiZ19I2ssx+sd9hfmaGX8fqCIWGm20wEhEj/YE76dthijuj6OUe363Fnf4I/+8wy7botfVmfqMuSx97O9UXvD9s8LvaFZfRz122zHjw3jTICcczw3Z99xl31yTrHj54z+5W6LBmHfozF4+xx51jZXumx6RfpN8uit1mnLZiT/WM9aMtxkvq2KkP6BP3Ba4euA326bW/32O3cWNNReVA3ly1lcTSGJOnhPvXXYyInsxyAs52Tar5WwQGZE1eHhmCb+uDgjgRWAmq+onINQm/C1LV9p4z17te//mzryZM/fhquMnbC5zvvvHNa7/rd/c9///eTP/uzP3vy8z//809+93d/9/T8RrZTTvAP6iLluVufx8vrx3OcZUt9B/jebvSjTX4j8Nu//dvPw1nPH3Me3jOMO4Mv/enHe3SO0+16zmzzGKjrNlnnoqZ/8zHHWN3hZyzW83O0/9Ftez2yTfmq7Ejq85N5u21/LqeuO2o32/QxIuWZi4u3lLVuGz3+0eNJOced7pfHlTLCd+/DRL8O5zO4R7ZXgb7Xe47uN+fONvNG6rJNkM3+HoXd4P0/26x0O9Z7rHZNXY95Du2C+SVJj+v5nfaWE03CTQ7EOUlxYppBoO+U9clrdTLmxB49XqQtfWZZr6/GpK6DdoJ5EBoTxglQaZufDlTZZpnxOrBF78urFOhzQUI474sdLlTymBLuv/e9753aZD0S9uMXf/EXn3z44YfPHzvo28ugHRcM6Pq5zjI/BGbqg/boPnmPElAjS7ZpQzkoW73GBPrU5bcSjJMxs295jnq+BMunn59PlaV/rwfjdF10v+iLAdqzT2xHl6PrG+VZ9nyzHNRjjpn6Duj9uW+Mk/6rdj0Pc3BMyfOf5/rb3/7283mi1/uiKWPN/eS90X2Dfcmywzn1HPOCssZ40cfNBFeex24T5wLtNYF5NQ5tU3dXv6P6mGPf1bbnlSS9GKc77X0CC05akRNXDszzf2Lsk2D65iDOwZyTFuVH+sSOWdZzxdyOPolEB4I+oRM2uh606fYEtWx3+VyPWUd5Auznf/AHT+u5mEggiS9/+cunJXU7+u7TUPuzP/uzT/74j//4tJ0LgOw3gZztDv293sGdbS4iop8nymmXul/+5V9+8o1vfON5G57b1mWEPcZKOc83AT1lBLpg7KCOdZZdRnsCMPVdF2zPPt12Ltnv3n/6dl3kec9vVloeax4nY3WbjNUXHuzHRF/GmfsYq8cRLGnHdqOu2+SHzzXl6DF7vG7fbSLbs33j+DSPI5G6XBDE7L869kTPm2NR/hrONI9RcxspB/W0pW6un3M0z0rPHd1vzk3d7CNJejynO+1ZScDOSYmDMuZJirtSfQLjJNgI7NSlbcZN/3lSTAD44IMPPnUiYB0pY/+YP3ofsr46WVMXqSe8r6Rt38VrPXbW8zPD32xDwIkuJxgFYTP1jIPZjrCfMJZQu1Poz1d15v6kLEE+cgEQ//M//3NaJpwnpLOeO/vf/e53T9t5PmKG/34O6QvmoW90m9Rz0TFfi6Bf9iP7yAVI6rNk/2jXY0TaMX7vN69rygjRzNvj5vnJvJ///OefXyilD9s8Fsbt+foxZJ2xeE5oF5kv47H/yPsp7fN+yzrtkXEJ8+gx+qJp1S7bLKf0oS+yPfdx4nmMtAefSzA36/npNvmMZpu6tO197f3oNsh2+ueHYxPH0T6W9bE1UtdlbM/jH1b9b+3cHHNfo/d39r2vnrOP1Ty3R+b+HT2WW+2nJL1Ibz09WX3cwReUJWRzgFsdSOnDnXru0qcPbTh4UpfyuR2M1fVZz4mQ4JvytGMb3TfSrve395N5ez1Bvb++w/zdhrHbPKlzMmfZYYA2Kev2wXbMMu4WJ4j111UIOpG2tEtAS/j62Wfbka/EJPTN8p1kHxMon7z11icFH398CpeE6BleT4+lgm6Cbx571iPlCZ487tRF6umTJWWY/ZiDsui+qznoR/jmMUS3W41JPXXsW+p6PdIWeS8wVs/PRUHGZOxe0o8+jXnYN5bZN/Q+Mg/SbgbxtKe820aPz3u6w3i/54MxGC91/VlqKedz2J8xPo+zHF2W9ewTF9KU5Sdf5+H4lGXrY1HM+oljJutxbszUzTniaIxV29ZzzbZzrt7ufg/BeDnm5vlkeY3V8fraMeJFPF5JusQptD9bP6sPniDM5sA161NHecw6Qj44CKZdXwCs1qPnTt/UZZn+lGW+rNN3NUbqI21nPeMF/VlnfyMn7Pl95OgTfz/+le7DemSdi5a+eGk9D30JSh1wCEvBPB2CWCfkXRvuV3faX4qnYf952Hy6P6f9ehYqL0X/OOr7fI6qT1kH2Bn4CaVzCYIzZT12oz7to4NrB+8em7HmfOm7mqf3P3pfWc+yg/qcY26D8mCcKeU8b+wny6Aunv/m6ek4XCjN93skcOcx0abx/udzxmeEJfvRFwZdf8vQ3uh7NGaX9zyUp+zcfKt9u2Sc2Q/n5rpUj93HzXkcPXdcXbUNyuY2zo3Zuh3rjLkyn5dLnj/a3OI5lfTq+1Rov+tg1QcoDuBdNvVBbB7QCKFzTMJxj02YTpujst5e7VvWs8Ts0+OmL/sScw7GzxI9xlxffd0m5f0/yAYBoNezjHPrHei7rhFIOqQjffhqROo6nBACCV3dZgakU2B/dnecMV72Xf1Hv5B4+nhPvxnIMvgtQVC2MINqb7M+20zn6s+NP901T6zaXNJvekifvK94P+ZCIfq9mYB++k3NU3Me3pOR92Vf5PQFR1+AEPh5Lwefnf6cUZ//eTmfw3y2c3xY4dhxiT7OzD597KFutrt0rh4LR2Nizs/2JfPdhbE4hkbW87xeqo/B12Ke+/afMt5Xv/rV5+OuHgePjzl7H1btG8//0etE+VEbSa+OU2jvA8TUB5KHWh2AOJBccrDqsrlPs230QarHn+uEccpwbr70SVkfBCnDaqxepi99juYJ2kXXJzQQHrLsMtbRISNo118/yHZ+8j8sElxmWEnICb6znO1e7wDUYSp1hP0gODXC9fM74x2Ad0Zwf9GuvFDAfYLzkVuONRGgGZ+5es6s8x5NgAdt+G0BaN/v0yOr+TrUM29kjlwY5P/Nyf+I2seFlmNSHNXfyrUBjf1aueSx3PpxZbw+1rGe4yTHz5V5jL21u8ZNfRy1Yd/aLfZ1jnlr/Ro3ym/1uk+3fl9Jr7q3nn4oPnWWnwcVtvtOQXvoAYe+RwedowNC95vzUzaXmHPRZuVonDkmjspbAngeU+6MR48PxsidOw5cKeMguUIQJ5zPv5aTOtCWdXQ5chc+Xz9IwM/dRO7opzx/3YWQPwN+S1hf3bkMQlDqCfVBYDpan4EqTtt1Z/2F3Wl/lVwQ7HfW74Npvh/u69w4R3UJ7e+///7pc/yyQ8bRcfPI0TEljsahz2M8Vo6NHAe5aRHcYEnZXM8+5fnPOsdVjreM1cdZ0PZFm/P2du/nUZuJuqM2q/rZNtuPhffKXe+3fv/2OmbZqo30Ovrcs+UJH+bGdu4esd5tVgcGdPvuM6XuaJyjD2KP1/NEPw6WHPSzzQGj51yVRfdn3PzQjnqWPXfQnp8+0WSbx5dlyvOT9X7clKd9zH7gf6RNoM5P9oUQnh/C+VFIp91sm2AefUc++HOMCd0J9anPT48XuctOYM86gT390p4AlMDOetp3OGKd7SwpyzI/lCeUJqxnyfaj/SSwZ4mu21X2+dqfBZ7zk4M2jyGv6el1XTgqv9a5cY7q8t6exw9wfHlR+rhwiXnMCbaP9n3V55Z4Lnv+lHEs7+Mo6/3/FXAs7nb95zj7tTp63WLWZTv7dK5Py7xHGGMuo8syRo8zt0Gf3GSb0n6O2ev8ZHv+0I7l/Oly1nuJXIzd9VmgPsu53mXtMd+H0k4+c6cd+RCsPhz5EPJhDz6UfQBoXX7UZoWDx331fNPcl7lf3Y96lnlOOkB3fXTbSPs8l1220v2P9FhZP2qb/eMiI2jX5SmbSxz9ycu0SV3jbnsOxv29+kigT5DhL20EZXwvub+THPNue/8PhmlHPdurZfT6JS5pf9TmIX0fhKDcFwgvMDx/SvZhNfcsX7Xb+QLnAm89/S++893vnH4TRXAEx9EZLPg8X4Ix4tI+lzrav+lofy/tf6mMl9CZZY4XfTzp41Jvcxyb+riW+uwjZd1+toscK1ePKfV98yXmmOxPX2AwHuV3PV+MgazP/ZzjzD5zv2KOgaO2vX1fq/1ajXvULsvpqHzK88N7l/fq1M8hbaUdfSa0n3tjn3PpByj4UK4+kGx3m5h9pqPyc5jrPnp/8nx1kL/W3I9+HClPEM7rkvWed7ZjHNrngJ4yXtPUIfvLwYkl7WnX488T5PxLOXx1hu2gvvsG2912fmWGu/oJ+NF/9ztlqe9wn779XWPWE5RXgZkyvqNMn9n+KGzP8my37h+My/p0NE+cq5suavuygv2L9gIuBgjseOdX3jl9Pvp/MOfzhbl9l2vbXyJjBp9/1o+c24dL+l8j43HsybEs+lgBjiF9bJnmsYz2Kc8fAsh6j8N8ef16ztUcjH3J4+7jaszncx53cyyODvvR/egzx45VWczyo3Zg/CP0nW1mv1W7o7Jz80Xq6XuNOd99xog8/7zng+1+PTHbTUf9pCOHd9pv5dwHjLpexlyPu9p22S30vNdgX661ejzR5UEd5dF1OcBzoM92Dggc9HOASB04MQQhnrGCsrjr5MgJjjbZ5s9gRpcz1qoPJ0v+B9nU5YfvzfPdekJ9JMQT0vkaTnR5QjnBP+Pl7v3qrn0QrifaZaz+DUHGyV8tyXea+6+XRPrM3yj0PNRzwTDRZjoqPzLnvtpdQf8hd9p3dib4z8COL/3U8Qmcz2FcerK+tv2l7rs/E/3jFvuY4JwxOXbwmW3ZzrEq8+U4x2PhuBd9XFzhOJr5+iKL4xL/T1CjT5bz2IbV/vK8zGNxlhkr64wdWQfztaP9Cl6PlF3yeqzGx1Hd0fx5fJxjjsY8whisX4L9m/tzl9nn3Bi9L/fZv1i157Xh9Yp+vbo85ms5+7F91O5o7Nlee3v00L6SN/Klb/qHYJ6jZX4Fm+84ZnvqdrFqE7MN65fIB6c/MHf1Zx9W+9QHy7Yaj3n6gxt88BmHMbOcUp62q31pqxNYdHnWO+BH12W9l5HgPr92E/yNeeoI+HwlJ+GVsE6Q77HefffdU/++KMi8hPysp31wEdAXBzHv2kfWM270bwnYl5jtZ9Am/OOo7Vyn/0uRgP4s+J725QcXfzf/VQrxz7x111HzzEOan/uXZfX5vw/GucVjYqwE6RwP+nOXz2YujKOPBawTvHNMyvEoZat2WUaXB8cyjm2RMVlfHeN6vPTvY9jUbTnesT112+AxsaQs+5plnq8sg+N35Nid9rw22b7rOM+Y3Sbr/VwwXu8TfWJVH+wjuu6c2a7HORobc3zGWo0Rc65p9n0Mcx/u2qc42ideb9bPSbu72ujlyqnl435BWQ9evPlCzjZHfV4FfBBWb/hZt/qwXvJBOtdmNeaRbnu0Hv16MfecY/ahXfSBvaVNyvsgz3KO16hjjnlCYq6U8z/T9v5g9st2pCwnrSxp0+tZ0naibe7kE8LpQ/2qb05gv/Ebv3EK6LG6859gSsjokN4XEEHIz28RMhdtI+1zIUL4pg+6jCBM29Zl3f7cXf5pNe5d5oXGC/VIFwN3Bna8AtcifMY5XlyrjxH3HaNlvHz283nOT39W5nsvn63UcxHMBTD/HwyfJ6Rt5P2etqBvPtP9uQfHtRzreLwcz7LkGLiyqpvHzF5m/j4Gss16ftg3lnmeet/BsYt2HLtZz5h5PLxuvZ+pC/ZrrmNVhtRF6rPOPKsx0HOdM9tlO/vP45r9sz3nXaHdav5Zfsl4K5fsy5z/kvZH+33k2vYTr6derNOd9tWTz8Epdf3BDra7fK7H7BP0e1lWb1Q+EA95AzMuY13qaF/u4+hx9L513VE5Zn2WjT689v0a50QyX2u2s+QEkRNYpHzuS58ko/eBkxHLo7rGyWvWZ0kI7xM97bPM4wlOjpT1mC1BIGE8gSJ96B8zaLCN1ZhpG1wkJMj0BUECTYINFwBB2w7lBPagT6NsBqRV2V26D/PM7Tgad/bP+lG/bnvOpe2eOwj+D7nTrrV81vn8/+Zv/ubpN1q8d/t153NFCA+CeH8WcK5/+vGZybI/V/kc5jOYdv1btfTtz2jWCdYxj2OsU4+U5ViY8g7x6HCfdlgdEzlW9H5RluNP2q1+k9n7xWPBubpsf/TRR6c2HNuyPh9PsO9d1tIvuq7LGPdSjJN+9M9zlueTcaPbncMY5zDXXesTdSu0P9cGs23Pe4lz7Xvsbkf5ta55LfVZpzvtn6w+rnxo8mKtlm2W9fZd7Vf10yVtHhNv/JVzH7L5YTnXFpe2uwb7z7IxVw7OhPGW9jz3q/6zT9rShrF77m5P29TxGmc7J6qcXJiXNn0S6vDNkvpuHynLOvX5oT9tkLKVbtd3yFjSjzHnuAkmfLc/YYMLjYzVfzOfYEIQ6ZATaReE2L7rPkMPCL0su2yabY/aXWI1333Gu7bPufZH32n/2v/75KsKeR8+Bt7L4P3+WPO9SHkc+bx9/etfP90tj37dwesfhG5Ce7CeuiBo89U2tvuzRV9kDD6LaZd6yrJvjI2MGQR71vlNU/Y3n1XGjJ4/69T1vN2e49FEu9QT9iNtU8Z6sE07vqaT9w/9YjXPxP73/gb7EuzDPF6j63r+YB94jzfe75T3OJSlDfsROVZ3O+r6sWYf5meJx8B66/Ef4q5xeh9ibgf7NtuB8vkY2mrcc+4aM/VzzGvnmPr1yWs9X6/X2QsL7efwpJ978vtD2O2u7UPZpc71uWS8+745V/0oyzLmerA9ddsjqzZ3jXuJ9F3taw6gvHY5UOZASju2u7zv6Ezpk7HSvufrJe2ynrY9XsojJx3ums0x5gk0aL+6i5XxO5RHn9zyM+/C0z7tUp4l25QR2qPbNeakH9tdHtmeYWWGIAJSb8dRoKWcUDXbHPV7iEvG7DbsWzxkX47+ekx+gvf3EY5L98GxJ/17nIeMeZee81YYM/I5y8+3vvWtZyX3c+61pi7LvKc7WIM+1PfngYvk/szxuWqp5yIhCPLRn8mMyUV2dF1bzddt+Z/hu4z1XrZum33lYib6twe0iaOxep6Y9THHwbk+kc8TQTvH+OhjM3p7ruevBeW1zG9NciOHcwX1fb4J1lmmTd6rzBuUX6r7MnfGz+ep6641xzwnbWk355v7sBpvtY9H8/Zc07m6ae7T3IdZxriz3co8fu5ui9B+qWue2NXJhf6rZcz1mG1i9p3151zT9lqrN3P0G5g2R20x67tfzLGuwePPc3GJ1ZwZow+kPRbjU58+tJkH4iwZs6UuGH+1D5F1XtN5Ikv522+//amT3wpjYo4z65kv5smutwnz+Ul5Tsr8Wc6s8z/fMl+W8y5hh5UsG22zjASfDkStAxQXBR2gjjDOQ9tMd827ctSH4P7x0/9+5Vd+5fR32h8Lr3vwnu+ymOVs30rGveWY7Cefq4SrfFXt2tfnlvo9tXp/8V7IsoN9sB18xoLPZvDZYT34LGWZz1vMOfPZ4XOWeVaf2+hx+LxlGb2fzBM8niwT/unLb+qyzc0CHgvHF248sD+9DNr3GP1bj8Y+cXGE3NCIHjfvlxyr52cA3fYc2nFc7/9JmDLen8H5IfN2Wc4nK/SlH0E9OLYzTvRc06yb2/Pzyfic89L23PhTt2cs+rKNS9tEt5ttkHLaH5lzrsZajTHH7jFu4dbHXbxSof2x8IG/5km+q8/RQeR1wRu+3/hHb/pVmyOMucI4PU8foOY8c72XHDRZ74MpB7aM3esr9Ou5IuO0zMV4YEz6BvvY671c6bruO09ulEXKs97boAyrk/UMCWlDCOhwwEk/X73p9syXrxl0MGkdjFhGt+9wQRjpPpdYjTtdMl725YMPPnj+r25eczy5Bu+bc8eeh859izEu1Y/nvffeO4V2/nTq62C+d3i/NerzOYkZZCOfub7QjpTx+eL9z2chn8foz2ZkrtU+RO9n3s+NY0bmjMyR9h9++OHzrzK11PXnfnUhEezP0bECzJ8lNx14Hjie0CayJOhHjoHzN6Jpw5iMkfdhbrawHbQ5wnE35rE36zH7Uz6lnP2e42Y755B5zso+U498rjh/zbpz0jZoT99rxjiHsaYun/PNubt/t4nu2+3ushq/y3Curp1rl9eL416bx1yOw308NrQ/gn6CY/XEZ70dld8a+/Gy9IeJN3OXnTPb9BiXmO2z3Qe/WRc955x/zs3r2+1jtd192e7yfo16/1LOdnBxkDLWmW++1vNEcnQSSh0njiyR9r0Nyqhfjbvqhw4TOWFzJzEIGx06cnKfJ/UOAozDemPclCeUEHoeKuNmzF/91V89PW98nh+C1+6+Y/F+vNbL6Md7//t/8/3Tvyx7i9fkVcb76VK8r0Fgj7zH81nIhTd3t4MyPpv5DDFnf056X3qelPVFM4G8547VcaPnCoI6n0fmybgxx+bCIQj/q+MCFwqsZ+xcZPT+ZP96H/Mc0aePZalfHduwqs9vWXMRyrH0rv5xNGfXc76YY54rb5xD8tk7fe7G53Z1Luo2nGPmuC8Tj3213nhs1AdtZtlqu8vpF912Wo0VjHcNQ/tL0Ce3+YFg+yEy1qXjdNtr+j3E6g1/Dm/sVb9Zdy36P8S1Y+Q55vWeztWd089DPx+sc3GSJXUrHOzpx/Y8CcQsy6/IuUOU9XxNpH/NjPTrJfXZ5s9bzjv7sToBp21O1n3XjboECu7YEjwIBwSNnPBZRgeJI4zVUpZA8f7775+eu/u8hq0/k+ccvV/u+z6Kh/S9r9OcTwM78lWjJf6az5l/9ErXm+9ptrNstJnl+bzO35rRZo5DEOczxwU5feeFO/ic0o4LhsgY+dyDz3iH/Hw1kK/x5DiVdfr0cSB9ckzitwe9v32Rw3Ery5Tlp2909HEt2G5dl/VVmxxPwLGbtkd9os8Dl0h7zhFZcgwKxspxoW8UsW+py3r6MEbaUp4l4wb9zqHvizLnyvxB+Wp/aHNO9z9n1S5lvR9ZN7S/IuaJ9K5tdHnW45Jt1tts97LkjcsbmDf6kW4z14Nxdse+92NoeU1WB9HWY3AAzTLBOneEprQL+qDfH7Nu4qSEbPeJLXLSyQmUkywnI+ri6OQ0y+mXOfK96NV4uZNGKOCk3iE+Ut5BItK+A0NO+B0iEjZ+/dd//fSc8Fm5r/kZOxqPdg+dr2XMW453zvP9r8COj5/l83vrYN9/unP+q7xeANxLfx6OdJusz+BNfZbR6+d0eOYinX58dlmiQ/mqfK7TLmXzeJHjyAz1uVDofaEtZTlmcCxKWdpnOz8c/yKPjXZ93Ir5W4B+Dro8Upd12vH/VtEnUjeP4bM+GKuP/VnP+SN9M0afRxgv5QT16PNOH2N6/rk/2Q7maV2Wdcal/1H72W+2u+sY2GMczRVH8+HSPkiZof0NdvTGXJXPMj64K2l3rv5FOvcBiC7vtq3rY9Vm5ajdpf0bfea+XOpcX8qj63jN+0DLOLSjb+p5zbt+pU8AjNnlcz3miaS3We9y1o/GC9pQR1/kRNgIGzOwc8cvJ+n8diEXDPPzs9KfET4zs99sgy4P+rM+9direXCurq3aXdoXaR+rwI6PHxrcb8FQ/8oguK/CPyF6hdBLcKY/wT0I9B3sex7Wswy+ooduyxjs0/x/OGbfbtdjENRbjmVH4Z5jYB/z5jJyDItcTNAnOpTTJ+gX3X6eK1jnOJHjf6Sccwltsg8cI/o3tulLOI/V+I05gguItGXslnnyWPIbU8ZK//Rj/9D73I7KKet9XLWbGI+loV2Ppj8U+YCtPiQvwtGHCF3fH6hY9ZvtV+vRY6V8bjfqjtp1GWg7+1xj9mU8dF1ev9TltczBnHYc0GjLQS5LxluNy0G/6xnjaL1xougx0HWxOqmkjH1gm6Cer9vkxNcnzj5Z83WAnEzTn3G++c1vnvaFE8o5q8/D7HfU5tLP0mo/0veS/TuH+R8yzmk/zgR2fNzBnQD9kH/tdt5pv5W7xjX8v5ISkvM550IdXdaBPOXcoe/2LW36q3tB2I+UnduODvbMlTb9tSH2i306wgVAHk//z8693fq4yRLUZTnbZZt1dNlc73a469yQssa5aEq/tE09x7M5duqC/jnezbm7T7eLjNvnxyzbNcdi+hva9ULc9eakng9PdPtVeZfdyuqDxQdylgftj/p13WyTbcy+cdQvuu9jWr1uvT/sx2o/5z5mrNw9IfDTnmUH/ej3A+POOaY555F5Qjg6QXCnifp333339D+yRbZTn8eU+q+/+/Wr/2Gl1Xt49j33Pu/n6Ajj0e5ofMaa9Y+h9/nsnfaHnJ6OvgKT8rm9GwP+a6dDNgE8gZrAPYM1wZ42QTCfQZwyxs1c6D7UB9uMlYDeX+3pfel9jLSNLgv2Nzc1kJsbXBRgHmvZznE0PzHbTKnvtqy3HiP12c7xOXfUMedZHVPTh3ML5x8CfR8zc/6aFwGE9qC8y470ua7nNrTrtTQ/dC9Lh8h84PqDeM48QPR2j8H6rG+U0XbVZqLtdFS+smqbkJsDHPvAQQ7cqVj9OjQ4IM5xU06bjNsH0aCefWKcHjt1l+IEgPd/6/1na0/fez91XfBdvVfP9b/2vX3pWGnHNn2O5rrm8a18at6D0P6gwH5Ll4b6u+60v0xeBLxSZsCODtksW9fF0RhcAARBui8OEsRZzvmynF/dYbwO8An8Wc+4tM82FwYpm9/9j/TrgD+3Z8COeSyeuv5c25RzXmrpE6sxqMMs5/8jYNw+96DPZX0eYz3LYAxDu/RUh5Wsd4CJuf0y9UEA/cGnfJbNPnc51/6o7qicMuo5GGU7z2uvd/+UzYCY+p4n6yu0Y/yY2+xHHyi7TZcjZYwdH/zOB6flp1yZ3TLfkfn4u+1d78vZd+Vc/yOXjHsOcz7aXfaXYd7Bn3YN9Nfi4oTHunpcXiS8EmYgp2zqAB4d6Du0T/SbYxLUE8ozTr7S0wE/VuOnH30Yk/oO+iDw85uBrK8Cd/r0bwdwFNDn14ZoM38zGyyDMWZZtnM+6XMfZp982vx0SQ/0PIScCVFdd1fYurUOmdEHhz5YrNrMMrZZ7zLQN2izkueAoIy0nSH6Wuf2DZfUsS+9H1327W+d+ddPK8usXmuC7yXvg1VIvuS9NPtdMtelVvt0ief7fcn32d/U09PuAZ/gfmuG/ZciAbhDO+tHZgjvEI1zYxDOuw3zruZn7A7t0XPOsrTlzv5d6NNjcGGRiwn+8g9f9QkuLtIudflJwO7/CTj7Sn3QhmWwPX300Uef+ke+aGdolzZ0Vwi7Nnytgt250HormeNWzu0vAftW5lxsM0fW/+gP/+9fWzw0gnu/Dte8lh2QV+0Zd77O3S9WbVo/vkvM/ZrzTWnDHFlf/pbimTc2sD+GWwbsxwrsd1nd2TfkvxGOwnnW5wVAb88wji5nnOh50H3nbxoa8ybUZ0lYT9jOxQN13O0ntKdu/gag14PtMLRLr6FVgKIsy1ubIfcSMwjfx5zzaCzaXTPXJft2Lrjnu+3B6zCf9xl4p9VrdTTWyl3j30rPc07vQ57Xc8/df//Pf3/mpKhNJDR3cF8F55cR6h/KC4A3xirMz8C+Ov7Qhrvt8y4+FwA9fsI839+nLoH+6DcGwfj8o4GE/jC0S/oUwhWhcYayWwbAhLcO3udC96ybgb112zn+JWG82xy1Z9zV1zwI7NfiOb/LXe1W9ZeOfR+8Rxif7dZzX/LVmO989zufOinmxMZdLE5+nBS7LNJu9uUEqWM8f6vnaj6Hj/Kcvg5hn4savTYI3tPqM3DX56I/Y6wfWYV7Q7ukBzsKaynvsktDYwfm+5pjZLvXQShftcOqb2/3XeP7BvbHMMN0Wz3OOCq/1CqwxzWh/Y/++I9O3yWdOCH2r6JzMs023yPl182sc7eq5dfN/d3T4G5WTpRZD07Ul5yIz9W/bq59vN3+3s/V6s7+jiE/+/dY++XFwGtt3pVHtiNlhnZJL9Wnwtw9Av59ELyjw3fWqev16HbRwTZlCe75O+3nzDGno/nPzb2Sdt2HseY4WJXfNceRo9Cev6wQd/2/AO/8yjun177/EsP8H7qC9efjPvt7+f090A7r3Tflvd3/UFZQ3+16rIR6Tq7zn9TPhQAXADnJps288/+mI5R0OOlg8lK8inf5r2Hgf2X1Z8PQLum1NEN/wuSlFwIzvM7ASxnmdtb5CzhY/QWaLBP48pcCYs4x11dmHe2zPKfbrOZajdN1R9Lm6OLrrjvs+S1Fxs5P+uW5IRAnPOcnY/PcBeE+CNrINvvc/6BKyx33ebc+CN5BoKdtTqIpA20pY3/Svv+FScz9TP9gvvbSQuyFZgDvJe6qb6kDbdHbq3/5s9te4j59PmOG/ce80/4yGfq3YGiX9MZLQCRozvVLJUR+/etff7b1aQloBLlGeCPAffvbn/wJSQIpgTOBn31JGRcAaUeAzZ3m6DLadsjtx5b6DtiN9uwDGJflRFmPe3pOL/ge+/xNBY85c2W8nq/nP1oPxkj/1KGfk7RnnYuA/PQFQfA6paz//FskcLPN3XYuAgiXSDvaYF4wRMp4j0Svc6GQsbIkfCaI5uKBejw4nD6i7HPcdx8J3/31gtZ1Qfss+S3I7BO0uWS/Vu0u7Xux1+VioC9svBi4iqFdkm4g4TAhL3d0E6z4R0X6jmx0mOrQlzuyHRAzFl/5oHyu51/ciw6jQbCLbh/ZToAlzCaw9nbwL9ISfgngadNBty8muGhY9bk0sNM3c+QnwZrnM/vDPqWOtvNfz43Myf4h2ynvsmCcqecAjz37FbNNtnme+dcQkfJ+DRL6E+gSJgnfCekz4NOGYNkhsLfneks5ZT0P5QT/WT/RfjXn66iD/jlHzwnP7SVjrKye30uf88+0e92//nNk/uajLxKOyjdmaJekG0jIzp32BLMOPN/4xjdOy9/4jd9Ynmw7GHz44Yen5bvvvnsqT5DnKxYZN4Gfu6/5SVmWmTsI+WBfMm++TjAxTksfxsid/4TiBNAZnnsetrOc4T0SXi/585joi5+jxxy/9Eu/9DzwZpkLJJ57/oXD3ufejuwjwbrXg8fBRUkQ+GeYR/of1bW0m3f6QVn2E/0YKGfZF4HcYef9dGnAW6FvlpF1LjDa6rnvfo196TF1mdXrgbwuwWszn//e5vWif8pTFt3/M24Z+meQflVsEOwN7ZJ0A9xRzt8YnydBtld33DgZR4eiLktobQlm6IAWBLfIWNnmrn+CLP/TJQiwKU99tnOBQVv2nbuv3Tfz9F9nSdBNAM0d7xlET+WLO+75H09TN9sTXkH9LI++843s0yrs8ngbdaDfXHbdXI+sZz/Zj6wT9LOPWWdf8xzRLu+dPHfZ7v5B++j63rfodfR+djtQlrlzoZTXk/da1vP+IeRhGegeGe/tS+buz5M+i+cyeJ74/wPyWs/jCa8/y/RJXW+3fq0OX4sEdgLwY4f3nS4QZujv5+FChnZJuoU6kt73X/PsE16bYZ47aznB9omR/sFJc55sadv/I18COnf0E9TB3Wq+yhE9ZpbBfiTQv//++6eyo5Ddd9xXgT3Sh6+ycKebr75027RLqKWOUHut7seY0b9diA68/HYjUp7nLxJ6+6tRBOLgz1hyIdbj9m9LgqBNG75uQxnL+XxkO8sjPSZzJKD/3u/93qkMKQ/mmv0i2/MiEB0Cef/O9+CLMud8GfvwOuB5y5LXdprHqpf+XM9g3AH+qPxFuccFhaFdkh5qcRS9NrgfndwectJLX6zCe5aUJ3gRNpkvJ+DViZl+0WNypz7BkbvtM0Bm+9vf+vaT9371vedhO2b4zE/Cc/fvMQnWCfaU9Xyp76+z9Dir7ViVNeY4p9tw4RHzsUTa9Xfy+0KAu94s+7ccWc9zPYN1ow1SzwUBOogHY1De+8U6f0EnF32UpX32M7KvfeER6cN7LPox8f7LMmXB+zD6fYnV54H3Le1WbaQHeRnBfjC0S9JDnDmCXhLcCRvXujScpF0C0QzfPe9qvQN715/Td5C/+c1vPiv9P4TWDr6sd9ilXZZ9pz312c56tw8CMuGY4MhY02reRnmWXAD0stuwHlyI0LbXz81zDmMzDs9JEIwjz/sM3qwjZf21JwIz//9EttsM2o35eh7WV47asp5ldHn0bytol2X+34+8NyP7Sb/gN0ZcDOQCAby/eazZnp+BmJ8D6UFm6PdOuyS9QBccPe/7VZlbuTRw30ruwCZkEbKj7zhHh9RzgZWwGrSbQTnrq+WR2bbN/tRnO4GZQH5ujKA9QZ3xCNs9btYzLnW0jaM5UpY+zJElZdHlcx+6jNclyw7ROArR2e7fCnDHnFDf7fsOfGQ7FwjRc/bYvd5z0ZY2jE/45rcP2R8uNmhL32B7XrykT1+c8LgS2vM56rv+8zNF0E979oe+0RcC04v+jOrVZWiXpIc4cwR92YH9ZSDcENyRsJjtBDDughNGV8E0Up5A2eOcQzjtkNplD8F415h98hxEHk/XzXCdJYE6CPR53ujHWHFu33jctJnbvB7Zp36u2RfmmeE/eE1plzZZ9lzdvsNz5k0oJmiv7uR3+I707RDeYb63kceVtvmJtJkYD7ShjLl6DP7/hYRzvoJEu+i7/B3gWQ8uECLBPnf0I21oy51++r1ugZ8Lmchj8OLlboZ2SXqoxVH0TQzsyN32Dz744NnWJzoEdjC8SwdAdBBclc+weInuc7RfqzFpm7o57zX7Qf+2KsO5umtxUQC+Z8/4zMVjyXpfUPR2UNYXJ/Tvi4Dg/ZA+lKVt7xNjoAP0DNfINqE4FwPdNusdvIOLA8agLXrsSH/GbcyTZV9UsGTcuX8TbdOGv9CUi5hgX1PX+8//6BwzEMeLCsWXzGNAvx9DuyTdQh1J3+TAnpMxdx/5x5+4A0tY7yCXn3O67WPqYNhzpTzbLNHtJ9rNPrHqt2rDnNOqfLZnPIJvB+pVO/pP3S7rGS93rwnYPRavb4/F/JR1UKffRLtVuGe9x6dttwMXH1wUsAThmnX+Ek7foaeekM5XZgjLea9zZz19e7yW8vwwbvCbBsYmhPc+RO/HHDe6jvXotinn8a3MC4DgoiLlffe/dfieQfyuYJ76OGoz69mOc+O+zgztknQD+VOH7//W+290YAd/WSShnVBFYA8CG+GLZdBuhqzuP9GW9elc3X0RRDukHunH22GVfl0Wq3azTZxrd9TnLunTz2fGQerY7nWeV4Jz8JrTLstV8G4Zp8M3753ocbJMIO+LwqBtzPZdht7f6P4r6X8NQvMqcPf36Ve/CSCAs8Qs6zGpy08Cd/8mIGXzQiC6LFhPvx5vflUpKKNdY942x+mLFNYJ43xdKFYXCy/D0UXIXRcfOOp/DUO7JN1A/lpK/pqFPjk5cTKPDlcdmjDLzgX0l4kw26GWwHoJQl8/3qNwGavnataxHYyzWo9snyuf66D9fRHGe46WsLwK+LMMjNMhH+mXMpbgNaN8jpFlQuUqbAbtG/u2mq+3s07bqcvnY+xt9i1fuWEfU0Y4z1djuFjuAN13y6ODd+r46k365Y5/b/f4PW7Pn3Xu4DMGQZw+sz26HCnrxxhZT5tu1/jtR/YzuABAgvIqWBOi7xOmV+MdSVsu0IKLkNW8d+2ToV2SbiB3rHLifOvpf95t/7+/IgNC7iq4zDLavs4SEiOPlfVrrYJgB71zZihsXcccR/McjdPtj+YJ2p1rQ7CecyUM93sldbTJsvtFttM+9azHKnBTN+dLO+r7det20ftBn+h2CaHztwWM2f1633A0XoddxucfCeOuen6CQJ+wm/X8D7H53FLOnwFNfYJxJHzy13SOtqP/QlDL/jFm72ukbebhf05OPW0YJ9tzvcuiy9H/fwEXGasLkuCxEprz2LjY4YKAYJ3H2xcIPB9H5vMWKeu5OqyzzdLQLkk3kDvtX3/368+2/F57Trzz5Jmgk39YiX8JFb0eBCatEex4njo8XovQ168BYRNsd0Bke5Zf4qgPczJur6+WbVW2Qv/paPy5nue6tztsz/ctwTrSh/oZxNmm/ayLlM3XvcfvPvP9kP0MHtucK+3zOeUCAjzOyJzdLnVZ7883612WZQLzvBseBOBZjvTlzn3aRNr1zYCpX6/o7V7vfeTOfn66nPYpC+ob7SnnQiCPt4N+yrIEQb8DeZbBY12FekO7JN3C4kj6pv8FGU6uOfnFB7/zf39R5mv/75M7X9S1GX50bBUWY5Z3kKP8XJvHRHDKcvX6r3S7u/ox/mzT5Xe1ucQcr5d5LhOIGb/rV2H7XBnbrevmerfPfrAP1Pe+xGof53tqvleYM5iPudimDfOA+fpfA57hN2E9+i52EGijgz4hucNyZMz8EMyZhwuPIzwPtI/+2g7L1m2DxzLbznaNPtHrMLRL0kOdOYq+qcE9d4dy8iS453/SnRLcOYG3GRi0p1uEfILiRKCijnaroNVtYjVeHNUz9n3Mvr1/Ke/tu3TQ73FXc9CGEJ7PDOuXSH/mivTr0N1j0SYhOz766KPTkiDf+8AYMfsj49PuaH97P2I1FuN0CCbospx3ubkLHn33PvW5s52bDf1bgaxzl7v/n4Es89NBPuV8BanRB7QH413SxtAuSQ9xwRH04xxp7yP/zPUritCeE01/bWj60k99NvgZ2vdFULtG+sSqH3UvSoe/rM9AidmO9RXGoV1bzTO327mx2rk2Pf4cLyGYMJwl5jahutt2G+qDstRHj9N93n777dPxgKCfJfvFeKvHxDyxGnv2m++3+R5bzTPLVsE7AT0I8jnGJdzntwHZTqiPXAD011/yl3D4qgu/gWT81TyUZR2sG9ol6aHOHEXvHdjv0oH+rSsneUEXAzlZfeVnP/k19zkzuF8bCvXqmIHqUul3nz6PLUGvQ2WsgucRwuLR8lK9D6t+c7zevnauqV+bjDPHji6nDOmf8E3oD8J4dJ/5/mGe7psy7kyn3ayjbM7JPH1hgLSb77+0Tzn9et4ZxnFUTh9+M9D6Kz+Gdkm6hcWR9NEC+44OLgTy13TO8U67HssMeNeYfdlGymfZNQh6U8rP6SAbhMVZfpc5N2P0WO2o/mg+2l6j54jVGD33fTFPXr9VQMcM9v2PdaFDf2Rs6unPesz5uj/vKf4NgoxFyM+82WdDuyTdAP+4Em7yXfZr76Dv4mmAz6+Of/DzP/is4Njqe+19UpR21uF+Fewj5b3+2AilBN7+fH31q189bc/PHG3R/UGfOf5Ktz1yaZtz9Y+Bx3cX2vX+dVCnLmV5/fP1Gt4HHeKzzlgd8jvgs21ol6Qb4B9XemF/p70D/bVfd3mBFwNvndm1o78gw4lNehOtLgTm+pHHvCjokMpnttcj27EquxZzrdZX5jzZPmp7LcaaS+R553XhNUjInvP3PjIOoR60oR5pZ2iXpBvInfbf+q3ferb1BjpzIbAK7gT26JNT1s+FEknXORfk+7M226XuVhcB+XzPABuznO0+HkzUBfWr8VdlrceJHgursiNpe9SuQ/05vc+MxbhZGtol6Qbyq88//MM/fLb1hnsW4P/nv//7+T+y1F8dmoF9MrRLj2cVxI8C+l2fRcLoXeH+XJtL+kcHWnSwXaE+ru2LS9tN9Mvy2r5HDO2SdANv/J32hXyvndCek1b+caX8a6iRbU5mvR53BQVJ+yPQt1XZkbv6XxL00ccX1o/C9FH5rWT8OLc/sw0M7ZJ0A++9996T3/md33m2peAfI+EvIaxO1jkpzRNWXHpil/R6IqBfE/TviwuA+1wQPLY+NhraJekG/HrMZ/EPiQQnHU6KfSLqsB4Gdkm7WV08XHJBccsLAEO7JN2Aof2zCO2E8tVfUwhDu/RydOgkXPr520u/Lp87rUmSdEP5Pjt32XNXnb85nHVJe+iAnnUD+376dTG0S9INrO4g6xN5bvI3hlmXJF3P0C5JN5A7Ibm7rM/qf9lPknQ/hnZJupFf+7Vfe7b2aQnzb1Kg50895q46v9a95NfufnVGko4Z2iXpRnJH+bvf/e4yoH/+858/lX/44YfPSs57lUP+n/3Zn52WM4SvvhrTZX51RpKOGdol6Ubyve3vfOc7z7Y+LWE+3n333dMSCecE9CzzF1ciIT9mPet3ubTdY/j5n//5J1/84hdP63lOjsK4IV2SLmdol6QbyZ1lwmokgOcnd57/9V//9VQ2A3jCeb5KwnoCb0vflDNOfujLXf3UseTigD5sI+0eU8bPPuYfVYpz32f36zCSdLkfePrz/ierkqSHSAj9kR/5kSd/9Vd/9eTf/u3fnnzhC1948td//denIJ/w+id/8ienup/+6Z8+Bdtsp10C/X/8x3+c+n/jG9948tZbbz35u7/7u1O/1P/BH/zBaaxIGP6Zn/mZUyj/8R//8Sf/+7//e+r7N3/zN6f6zJM+P/qjP/rkJ3/yJ5/88z//82k97T73uc+dfhKse/kQGYOxI8s8jjzOv/iLvziV/fu///tpOeVOe9rO+n/5l395tiZJgqFdkm4kgf0///M/TyE2/vzP//wUtv/xH//xFMBZ/v3f//2pniCer9R85StfefJjP/ZjT37gB37gVP5zP/dzpwCcYJ4QjtSlf8Ju6vPzT//0T8/vaOdOfQL8t771rdNYXCxwUcC+0bd1iCeMJ3xnH47KGCd39TN+5v393//904XIX/7lXx4G9kjdD//wDxvaJekC/ouoknQj+Zfr3nnnnedfkeErItnOD//YUP71VNZb2qRP6rtvZJv14Gs0uWPf0o623Z7xcnGQi4R8tz4hPHfsY64zbi4SvvzlL5/Wo+dbfZUneGyrxzj199ov+QszkvSmMrRL0o0kbCe4545zAij//DRfA+ll7oDzDw7FL/zCLzwP1kGAZYwZ3n/5l3/5FJITjKnLktA+pY52YCzW6cc4WWae733ve6fgzvfkI/W5AIjcVU+Az3fz6ffRRx+d6jqUt34umsFdktYM7ZJ0Q4T2czqssk44jwT6DrPU0TbLDuCE7eiLhSCAR+pyocD+pa7rg9DNei5EWI85b7fhznrmmWF84nGs2hncJemzDO2SdEMdmIOAjBlSO7iu2lI/64KwTEimbfaB4Nv9+85+LgzY17Tt/U57viOf8myD/UifjJd2b7/99inMf/vb3/7MBcd0rs6wLknHDO2S9AhmeL8UIfsIoTltVuuXok+PgZQlkHeIph3BP9upT7958XDkXF0Y2iXpmKFdkh5B3+2+rxn8Ge/aC4IEbAJzr2NVn2V0W8qO0HfVp8uOGNol6ZihXZJeUXeF94Tg+97xv8sM8JeE8rsY2iXpmKFdkl5xBPMOvSm7z5352efcGKnr8jn/ffQYkqT/Y2iXpNdYwvO5MH0uJNOWNnMsnCu/xrl9kaQ3naFdkt4QM4Rf4iiQx7m6uDa0w/AuSZ9laJekG7srzN7Ki5rnvq4J7QZ1STrP0C5JN7J7iH4ZDO6SdBufe7aUJD3QrqHzmuB8a5c+JwZ2STrP0C5JrynCuoFYkl59hnZJek3tEta9aJCkhzO0S5JeiFV477KX+TUeSdqdoV2S9OguudvuHXlJOmZolyS9VIZ1SbqboV2S9MIR1P1KjCRdxtAuSXqhEtgN65J0Hf9xJUmSJGlz3mmXJEmSNmdolyS9FH5FRpIu59djJEmSpM15p12S9NJ4t12SLuOddkmSJGlz3mmXJL103nGXpPO80y5JkiRtzjvtkiRJ0uYM7ZIkSdLmDO2SJEnS5gztkiRJ0uYM7ZIkSdLmDO2SJEnS5gztkiRJ0uYM7ZIkSdLmDO2SJEnS5gztkiRJ0uYM7ZIkSdLmDO2SJEnS5gztkiRJ0uYM7ZIkSdLmDO2SJEnS5gztkiRJ0uYM7ZIkSdLmDO2SJEnS5gztkiRJ0uYM7ZIkSdLmDO2SJEnS5gztkiRJ0uYM7ZIkSdLmDO2SJEnS5gztkiRJ0uYM7ZIkSdLmDO2SJEnS5gztkiRJ0uYM7ZIkSdLmDO2SJEnS5gztkiRJ0uYM7ZIkSdLmDO2SJEnS5gztkiRJ0uYM7ZIkSdLmDO2SJEnS5gztkiRJ0uYM7ZIkSdLmDO2SJEnS5gztkiRJ0uYM7ZIkSdLmDO2SJEnS5gztkiRJ0uYM7ZIkSdLmDO2SJEnS5gztkiRJ0uYM7ZIkSdLmDO2SJEnS5gztkiRJ0uYM7ZIkSdLmDO2SJEnS5gztkiRJ0uYM7ZIkSdLmDO2SJEnS5gztkiRJ0uYM7ZIkSdLmDO2SJEnS5gztkiRJ0uYM7ZIkSdLmDO2SJEnS5gztkiRJ0uYM7ZIkSdLmDO2SJEnS5gztkiRJ0uYM7ZIkSdLmDO2SJEnS5gztkiRJ0uYM7ZIkSdLmDO2SJEnS5gztkiRJ0uYM7ZIkSdLmDO2SJEnS5gztkiRJ0uYM7ZIkSdLmDO2SJEnS5gztkiRJ0uYM7ZIkSdLmDO2SJEnS5gztkiRJ0uYM7ZIkSdLmDO2SJEnS5gztkiRJ0uYM7ZIkSdLmDO2SJEnS5gztkiRJ0uYM7ZIkSdLmDO2SJEnS5gztkiRJ0uYM7ZIkSdLmDO2SJEnS5gztkiRJ0uYM7ZIkSdLmDO2SJEnS5gztkiRJ0uYM7ZIkSdLmDO2SJEnS5gztkiRJ0uYM7ZIkSdLmDO2SJEnS5gztkiRJ0uYM7ZIkSdLmDO2SJEnS5gztkiRJ0uYM7ZIkSdLmDO2SJEnS5gztkiRJ0uYM7ZIkSdLmDO2SJEnS5gztkiRJ0uYM7ZIkSdLmDO2SJEnS5gztkiRJ0uYM7ZIkSdLmDO2SJEnS5gztkiRJ0uYM7ZIkSdLmDO2SJEnS5gztkiRJ0uYM7ZIkSdLmDO2SJEnS5gztkiRJ0uYM7ZIkSdLmDO2SJEnS5gztkiRJ0uYM7ZIkSdLmDO2SJEnS5gztkiRJ0uYM7ZIkSdLmDO2SJEnS5gztkiRJ0uYM7ZIkSdLmDO2SJEnS5gztkiRJ0uYM7ZIkSdLmDO2SJEnS5gztkiRJ0uYM7ZIkSdLmDO2SJEnS5gztkiRJ0uYM7ZIkSdLmDO2SJEnS5gztkiRJ0uYM7ZIkSdLmDO2SJEnS5gztkiRJ0uYM7ZIkSdLmDO2SJEnS5gztkiRJ0uYM7ZIkSdLmDO2SJEnS5gztkiRJ0uYM7ZIkSdLmDO2SJEnS5gztkiRJ0uYM7ZIkSdLmDO2SJEnS5gztkiRJ0uYM7ZIkSdLmDO2SJEnS5gztkiRJ0uYM7ZIkSdLmDO2SJEnS5gztkiRJ0uYM7ZIkSdLmDO2SJEnS5gztkiRJ0uYM7ZIkSdLWnjz5/wGfU5lMOO0fIQAAAABJRU5ErkJggg==;" vertex="1" parent="1">
          <mxGeometry x="14.060000000000002" y="641" width="212.94" height="143" as="geometry" />
        </mxCell>
        <mxCell id="mQIY4NiD0DT4UJwngbeD-31" value="" style="rounded=0;whiteSpace=wrap;html=1;dashed=1;fillColor=none;fontColor=#ffffff;strokeColor=#B20000;" vertex="1" parent="1">
          <mxGeometry x="81" y="681" width="75.47" height="69" as="geometry" />
        </mxCell>
        <mxCell id="mQIY4NiD0DT4UJwngbeD-30" value="" style="shape=image;verticalLabelPosition=bottom;labelBackgroundColor=default;verticalAlign=top;aspect=fixed;imageAspect=0;image=data:image/png,iVBORw0KGgoAAAANSUhEUgAAAQMAAADoCAYAAADrJYE+AAAAAXNSR0IArs4c6QAAAARnQU1BAACxjwv8YQUAAAAJcEhZcwAADsMAAA7DAcdvqGQAAB5iSURBVHhe7Z3Ni2VXucar8gGOJIiIAxEH7SiighPBgLngH5B5OiSDZODMucLtO8hfcTPo0O1ccCQ03AQNZOAgUQJCehAxg4ggfg2EDvat30o9lafeXmuffc7ZZ1dV1/Nrir32Wu/6OHuv5zlr77PP6eOjo6OHJ38hhGvOE6fbEMI1J2YQQmjEDEIIjZhBCKERMwghNGIGIYRGzCCE0IgZhBAaMYMQQiNmEEJoxAxCCI2YQQihETMIITRiBiGERswghNCIGYQQGjGDS8qNGzdOUyGsQ8zgknL//v3T1PbESMIu5GfPQgiNrAxCCI2YQQihETMIITRiBiGERswghNCIGYQQGjGDEEIjZhBCaMQMQgiNmEEIoREzCCE0YgYhhEbMIITQiBmEEBoxgxBCI2YQQmjEDEIIjZhBCKERMwghNGIGIYRGzCCE0IgZhBAaMYMQQiNmEEJoxAxCCI2YQQihETMIITRiBiGERswghNCIGYQQGjGDEEIjZhBCaMQMQgiNmEEIoREzCCE0YgYhhEbMIITQiBmEEBoxgxBCI2YQQmjEDEIIjZhBCKERMwghNGIGYWtu3LhxmgqPEzGDEELjCVxef6Lm1W1Ynqt0bO/fv3+aCo8TxyeT8OFpehGYKKOJrUlEucf1JldtY2oCqr2avspc9tfxuBzn8DnNDL72ta8dffzxx6dZnzPKv+xsGjeTmMmsdI/LNNkvo/A2Hb9w9ThbGUhAbIUEVcvmGMQ2sU6v/4rGo7SYihe9GG9vLjIUbUVPHLuIeZc6u6Cxe19z+u7VC1eb4+eff/5hT1hA/iivVwZeLjyu1vc46NVVrNPL6+FxtY76UR9z2CZ2E0sIaa5wRzG9sgj9etLM4DS9ClWQ4OKqZey/++67ZyL0cuU5vfbn0huH8nr9Qy3vUcuWEllPtHPNoYfqeXnNW2rs4fLRzGDuRO7FzSmHUfub6LUJTM5///vfLT23beI0HlA9z4Ma18Njeu0oT1BGXhXTXJER5zF1X0y1p7LKpr4r3s42dUdjDpeDWWYgfNKT9u0XvvCFJk7P5+RLsCMUp0mittiC8okTigHaJ92bZGoDfFzgaVHLocbsg9pirBKU0r3xe8wSqL3KqH2PV8yccY/YNj6sy/GtW7fO7hkIiUJCgypqFyyxozqk2TIR1A+xTAqJWO2ontp67rnnjj766KNz7da22O/hbaseUK/mge8rrVihPjU+pUGxmvAqd3p5QiKpgmHf8TKhOh7r+962M9VWZZQPKqtbhzwYtREunjMz8EnveNkorsYgJE6+8r/xjW8c/eY3v2lp8hyPBW+fephBhfx79+49Uu+tt95qeRK1j6Giei76agjAfs8oPO19eL3aN/vqFyhjXwJhvCMRwUhoPTxOaW/L2abM25xCcaD+w+Xm+ERADxEcAkNMbEFCVL5QuahipdyF72Jw1I7e+Wuc96M+iGO18N3vfvfob3/729Hdu3fP+gFPa1UBtFXHeXJ51F6X1wWNha2LXuVMagleeY7aA9UHBKHj6DEwJZRthNhrR7GUbao3Kofa9qZY7zdcDY5v377dPk1ALC+88EITGZMWsVQBAcJ65plnjt57770zkfkWvL4LUVvFad9RmcfwJ5EqX3ib3p7HewywX+MdiXUkdowGan31WfF+EQefjlRcQFD3hYvLBUdaZTU9xaifHt43eL3at8pqnXB5OT4RdTODZ5999uidd95pmT/84Q+P3n777Ucm+4svvnj0wQcfNCMgrXjhJiG8Db2jj+IkUM8X1FFdwX4dY4W2VId44asdUN9K8+cxWkmojFgfq4/DYwT71OdPZuMCEj3BeV4VW6VXf2mm+qhjBR9vrbsr3qcbsI7tiDq+0WtZapxXiXaZgPjff//9ZgiIvW4R0Q9+8IOW/s53vnNa9TM+/fTTtn3qqadaWls3CuqSD+pHEFcFTrzyPRa8fcQmgxEyDaE21B5lLlJH4tZWeVrl1HzheaQZE2bnefxxWcMkY8KOJqHYNBl9Io8msLdJWe0DRm30Yh3vq8bWvnzf6+2D2sMItCLbZASV0cpvW9Z4vWtw/ODBg7OHjiRYCRxkCipzEDbmUA3B02zdAGofdV8oH9ROhXxELqOiD21BZfDzn/+8rWZoh1UPyHRA4kbIvCbFODIT3t3rZRBbjcMNx8uXNANnNPF6+XXSAnlT/fXGNqedWk9M9TUXb7uuDKb2nV4sKK/ui6k2HY9TWm32qMdlzvFTzBLH9PjhCSRGgoOpMtGLmVOvsk8dBIxgETMGBG5WCJ9VENR+qCvjkKFoNeFG5sYmI5EJgFYlMgBQ+S9+8Yuzy4TRyauCmkKxvTo+kVRW4+b25W2JUZui9q/9Of1tQm25IDcJreJC3Rb1s2v9Cu19//vfP2u39zr0+tSnj6EX7+j4j86T8s/MwNlFkCOWbKsiYap99eV9kpZQ/RJHMVrdCMW7AYzo9edmoX5Bq4033nij3UAciWJJ0UwxmhwjNK4ec17L0q+L9lyMLhIXTUVlUzH7sKldymEUo7E5S4y1ttnj+MQJHjGDo0f94UqBOKEnZBfuPky1MyrDDG7dutVOzKHFvom1zWBpuEwDiUQf90J9DsTTjInjT1oio4wxqq2ecBS7NrVf3/dxjmIqKuvF9H/27Ph4+78OEmVjEHMIEOJIqEsYAUy1MyrjkmN0kqbEdgi2FSjxtY72R2Pv1VkSHUvvnzwZg4yAia+037eRKDzOP/b1czU6b1DL2GdMU3Uc+h2hNuoWPI82vJ26L1SHy5JKf2VwCFht9Ayh5vfirvhK5fjkH7z3/nvtvoEmpNBkrsIhf66YXBBLC3A0vspovHPrz4X2mMxsdYMWPA2+jzBcSMIFQzljVJ7H1zjQiqJCua9KoLap8bhx+Qpl1LajNgTpOs7aTq3j4+reM1jzXfxCWcFkZATi5ks32wngRqKoIhqJasS28XOgTaBdT4+YGsOc+ttAe5rQulzQzVpHN3HdICouBlA8+Tdv3mxpb0f9cf68z14fanvO66Z/xUM9nl5Oumci4PVUp7YNvbxznybAzsvoTQbSe8eHmj+Ku6xMGEo1AnHjm33h6ERuK55t4+ey63gqqg9LjBFB0qaeBO0Jnn0mO/0x8fVaEA774OLqISHRn5u3TECP3Tuqw3b0pGpvvDouEjbjRehsaYu02gbSQv05o3GBzgd5fj7acwZLXUfvBMI/FVS78fb000efPnhw3pSukjmcwvXXJBMvSRP3otGkEbuOSe0s8ZrUFgJFbHoSFnG9/PLLZ8+HsC/RKi1BSxgSZY1jC54PEpxECrSpdBUgeHvUl0H08FiMhljtVzwW9Jq0VZ5MhOPFFsgTMkfOTfc5A18l1I/vpvA25lI/2luVA5nMRiMQV8Dj9hWy6sNSZsDkZXLzp+dKenNPz53w7IceMGOrB9DYSvBALDDf9QwJqK5fGlQhgpuERClBallf6ZUpz8WtLf1jFOD7SvOnsWmrlY3GLij3+PbdhPpZvSDP90F59cDvYgReR/3UfRi1W+uTHtXz2Cnmxp0xMJR9Vgahj4wAYfzsZz9rT4tq7vp55/kODEDiBgkcYffmyag+9fTcCVs9LwISE3H6ro3MRwKT2PySwgUOSqtckIeBku/mINw03GjdgNWujMDHpTyMgrhmBnqBfvCAAwASh68S6sEUEpO2nlepsaO4OfT626W9betMxY/uGTz/X58t2ZZ4p+zhkwHoh7xD9bcmMoRXXnmlvbuDn3eh8w8Ss8wAlKYMJGAMxvclGFBdQRsuLq0gyGNsalvQJsgwlNbKmPGyWlGb4P2TVpn36/ESf0VxlPtqxA2mfYWZIHWqrXdWD0I9uDrwvg8joShfJ6vGjOrtw5w2PUZjg33GMvo0QSdgk0D3EbFMoZrBIY3B+1wKtQlMXv7u3LlzmrMbU+daZWyZ0y5YoToqdz3o8sNFKl05lMt8QAYBrknaRHMq9zKn15/H+reRaznbc2bAwPgcXGl9807BbKur+UFg6yiWLfi1nZ8A8BMjs/ETM0Lt7BtT2dRvj1EdGcLDk38vvfRSe87gULhwXPxOzV/aGGj3EGagdzE+8vvpT3+69flZEp9TvfmlucDWDQO0D9IYoC8h7SgN0hJb9Aa1T7QjndFPT7fg7Uhv7WfPKOQgc7A1IDXi+8IHDXJDUFntXGahzoEBaPBcgni8+tM3DXv4AdcWPB4n9BcMXmcOvXYrc9pjLPpuAiwtQrFJ5EuIdWnBT+Gv59VXX21moC+cPQ7UuaP55qgcnYBrRaA5fwMH8qQvzX9pQW/e0uaZGQANSISerlDGX71DKQOpKE/lvXZ79QSDBQ6IPn3QAZPBaAu82Hqw3BDUjtKOC1/3UehvX3TCX3vttXbclhDSJtFvYldBX0Q9rQruf3i/Pcm5xDm5ylQD2UQ1GBkBMMfRwtlPpXNDwe9OjpCYfSUxEnnN00ccSrNc7n2WKmPQVuXs847AC6srEfDViERMLCagu71ehtjrV5q1QnHz0BbmnIDeiSKPE7DUF5XmGsFIgLsKE/apuyutzxMjEFxyddGnOxMPg4U+5/5HJblvNQcEq882HZmG6ggmiiZrLau4mIH93ooD89AKgH2Vu1FUU4Gar3r0wXVnrz3ul8hI5KBuDkA+eS56NwGtKnz1gdH85Cc/WdQMxKg9xS0p3jXN4Gz8ZgTi4b4fz7ph+EfE5Nf9a8CZGcgIlHaUD16mSVFXFW4Aqku5TqyX95CA1bZiXdgjkYOLG5T2fKVH7YFiVKa6ArE7En41AvZlZKyG5l4m6HgB8T0R1hjh+aD6Sle87V4/YqrM6cXNrSuIh54RiL0NYQkeE7M4tzLoUYUrsQsv4+RRxgnnndyNwNsZmUdtVyL0crUxSjsSr7chvAxc6J6nMWhfBsBlBysIrRTAVw5cxvijsmrn9u3bbSxzBVXpCaxCTC+/R28c1J0zvinU/z7ttHFMGIE4ZwgS5j5Pl9aVwVJsaveCTWWjGWyiN3EkXKVBYlQ+VAHTFu+aMhLFa+sGAj7p1W7to1L7HOEmAHVfMFYXO8/Hv/nmm62Mfcp12fPKy69s/cCRXp9T6/ZihB+jEWpPcaP21VYtPwQ+5smVwejewRxGlwLk1/3LxgGMo5mBBCchaX+KkehG+T16sYiHyaYxaBUh2Ae/8Ui88nU5UtuVkQDtakJ7PdIak9rxtimbSzWPW/996zR1MtEH31oc4cIQU/V78VPMbYs47avOqK9tXl+Pc/0OzGAvI1iSuWaxaWVwkZyM7fjkoLcjKhFsM+Gn4kdlo3zlqRwBIkj2mRie9vrk1YlHufdDuofi1D7UfY3DTcNjPF+Qp7bhjf99o23PseWcoL8R9fV7rAu4xxzRTtUfsZQZHGxVcBHUFUflgo3iETMQEhKQ3xPWKE/7SnueUF1QTA8mhQQoiK3i3JapsYk5ZRqLj8Pz7t6ZeNrQzn1PcBLUHDH2xHcmqAlDqPXm9DWXXQ3hbNxz7hdcNUNYigMYx5kZ9CbMlBiWgj6WYmq8Eu5S1L60rz5Iv/V/n/8gxpBiCH4eJKZ6Xnq48HrxareeZ68HvRjHX98c6rhqfxVi1Afp7qrqlGtrBIfgxFyYimdHdNNE2IcqnjlUge1C7XPUluK26WvO2KYMgXsHIIHU416FVOmdq1FbPTa1vxTezxQ+Bo7r1LF78Gn5AZywN+fMYC46aZqM9WQvObGYFC7oKTHXsmoEjsfW9ueI3GNG8Wq3t9yVEWyLjvkmNsX1yue2vQuaI2pf+473PecSoT6WzENf+ngXo9BDYP7oOXlAXK173c1lJzPYhdEkIN/z5k5GF+Ku1DbY97SQ2HtxolfX9/1dblcjOARVpE7vdcIofy49I4BtzOCtt9/qflmpGoBEr8fMgWdFPO2Pqgs+CeI5Ev+Oix4k49kRPW8iQ9lkJlfBbFYzg304N0l2MI5dkKDBRU1aZZ4GjwMXDHkYAs8ZTFHbrIz6n+q7B3FeR23VdkQvf1MfI0ZmwMfKsOleC78Jwbn3Zzz8UXWh9Fm7p897SPiqK7wu+b7vD5CByj3O28Is9Ei7ft9A+RiMjEWrlbpSuQiuhBkcimomTNK5BlNFUYWkPFH3SesTEdH7RIItE+nevXstv/ZR0z1qmeLZTuExvb567XjZCGJGpr5pRcCqirb5ox7HRkJDlPzRto4dyDRAAhbsa8yjHyvVd1V8dQESNMgoet9rAcUqT+Mhvn7tGOo4qQ/qz1lqxXGtzWAbmHiawDU9FyYnP9fVgxOvCeJoUmhi6IdRNNE1kTESjYU8GQtxEgbvjOB5inXx+Guj3IXrKF5jEGpX24ryvN12TGfcJ6grK71m+qI978/7H6VBbVCfMuHHhHilZS78udGAzhN59afPELL2tTqQubCycYhTjKhGBORpjoCnZUC0xVamIaNSuYgZrAiTjsnDOxAnTF/H9ncQ8JPkk4l3EJ94tKWlr/Jr2n9J19GEAY8H9hGGRIIQfB/0BKhEJWET4wJyk5IZ9erMNQLVpQ/+EKyOJ+PRmChTbH1aFehT4xPsk+95oHYq3ofQa2dcUGPY13H2H0kF8v0c6Id9/P4H4q/GoRitSHyl4Ps17ZAfM1gRxMvKgBPuJ/T1119v29FPeelEg773wHcgyNcXpnQTDCPRuwV/5LGlb5B5CI2Ffvl2ZUXtONRRG/pNCiZ2FaX3o3221RQAUcz5GFa4qY5eM7zwwgvn3h0xXh17/00M1fV9YIwSrKdBr0NmBzKSahKC+qMyh7i6MhHKY5zCX4PytfU3F60INJ/cIGIGK6J3QD4j1zt+XQHoJDl+wvQuAZ7nS0jghAs/8aAJARKI/2iMbpYJCYN8ytnHuBSrsetdy+vSj9+tR0BMbN6h6wRv+Z0VQv0RWSBeohAqr/ng79SCMfVEpNfrqEyoXt16WU0DacapcZCWgTBG0horx0hxzB2OHfteHxQPXu5jA08LH2fMYE3sSO/69JwEXVcQ1STYh7p0VH0gj329a2pfsfodBkD4WoFgAELvrlrSgrfpJkc+RsGvPcFIvL5C6BkBUEdLer0z6xLAY4lDLCqTWLbF66lN8NUQaAtajQH5HD/ANP0SEZErVh+XyuC9XV/dAf1637rsUJ629Xiwz7YSM1iLzlHe1hBcqM4ofw7UFT1TYKt8X0GoPybtaDUjI/A2tbJgQmp1UCcm+3yn49XXXj0TMdRJzR+i9PrepgSLYSjP+6Pcl/XeTm8fenmO+pjCY2RoUF8LEOf3PNxgWHVhGNr6qow0xxpDAJmDoxgRM1iDiSM8xxBcfNtAPdhUV8KtovZ+e2k3Ai+fwt/x+KGXisTgglLaRaQ4tr4yoJx90h4PEp5Ep3dYtVXp9eson62MxbceozTI4BTr6al+plDbakfHBNwE3BS0clA6ZnBoZhzdi/7CzVwhLwWXHwhR4gV/hwSf/FNCkAhAcVWApHvbETXWqfVVzj5ClNCn2gDFywDUnkTs7ZKmXZUpFkZ9kEcd9cFWeeD5GkPMYA0mjvB1/OYd5qNrZU1OYGKyz1JY79pVFBXyEYm3M4WLh23N2we1tw21DscAeD1e5qLVWN1AZRQcN9VTWzA1Nr3umMFadI7ydTQCweqA/1DG0USXKShvE5roHuuTv5evvrbB64zG1WtTsZTVfrcZh+o7vTwxVdYjZrAmdqSvsxGwMtCNKz0UpSWrTEACYTJvmtAee0jUD3hfEl0Vn8dXFFfrQK9eL0Z9Vnr5NV7taUXB8Y8ZrAgfqfFbiNfZCAQrA25eYQbVCKBOWm1Bcbo80IT2+hXFKl2ZKtsVF6CPv4e/XqVB9TwPenE1BqbialnMYEW4e86Tg+Hz+wa6m+0rBCZppeZNCf8icYPaxWBcqII8CVf5vThRy7QPaqeXjhmsCDd3+JyeH5jK6uDzTxWExNOb4DXvsprBkshEZC67gNjrsXNzcGIGK8LKgP87QeS+wWcPIPnn3Ux8HjjSk4fiOprBPriRwBwziRmsSedIX/dPFOpHiP4DqPq6cjUCiBnMByPoHa+aHzNYi4mjfF0NwZ83AP+PZoR/bdmJGSzPE6fbcEg2aL39SDW/g7/L32MAlwk9I4BNP4EWliNmsAYbNPtwH033DEJ/Tq986m8FeASaL9n4fZQec374JOwPZz2XCWvROdJ7GcFVY/Bfi33233eM6f2adC4TlicrgxW59T/nl8LtXgEC2efvKlFWHtwz2GQEMPooLCxLzGBFuDbWzcLFbhr2DEJ/Tq986u/QnBjCU08/vXFltOmn5cNyxAxWRJ+lr/bpwT7i9rpL/Q0YGUI1AlYIWSUcjpjBivjTdteSjjF8+uDB0Zu3bz9yCeVGoI8W2fY+ZgzLEDNYEf/JqmtPZ7XAz5wBTx9qBeCrgawKDkvMYEXyrvYo+s0+jg1ixwjElPh3fVY/jIkZrEg+DuvDvRSEjyHwVWa/HHAD9XSO5fLEDMKlQELXz3iBiz8cnphBuDB4zkA3VVkZyAhyb+BiiBmsSN7pxnBs9AOeOU4XQ8xgRbjO5d0wPIpfHoSLIWawMj/+8Y9PU+fBJK6TUfBa+XETVgG6GTjnpmAuIQ5HzGBleAfkfxXqCZ9v8ZGv/2l5E1fZPPSRYhV37xLB83IJcThiBivDdTH/eWkPTALqj6YiegmfLb8QBPpfkGq50puYG3cI+H/++K4G6OPEHhH/esQMVoZ3QokAEDZ/vFPyfxBCFTaiZ0mttP5nZEFd8tUOf6qrVQhl2sp0VEf7grhDQvuMUd/VmLpfkMuC9Xjy5K//EzPhIDC5v/SlLx39/ve/P/r73//eftzjD3/4QzMIRPHrX/+6lX3rW99qgmGfOIzin//8Z6v/+uuvHx0fHx/98Y9/bPUo/9WvftXaAkT27W9/u4n9q1/96tF//vOfVvfDDz9s5fRDnS9/+ctHX//614/+8pe/tDRxTzzxRPtDsL7dB9pQ28CW18Hr/O1vf9vy/vGPf7RthZUBsbX8r3/962kqLEXMYGUwgn/9619NHPDuu+82EX/yySdN2Nr+6U9/auUSOJcW/P/+X/nKV46efPLJlv+9732vCQvBI25BGfUREeX8/fnPfz57B2ZlgTHcuXOntSUTktlobKrruDlI5IiaMYzy1A6rENqn31/+8pfN4H73u98NjQAo++IXvxgzWAG+PHr+2yLhoPBM/c2bN88uFbRUZp8/PYTj//moQwx1KPe6wL7SoMsJVhgOcYr1eLWH6WA+3LtA3KwwoKbVLubz7LPPtjR4f71LGtBrm/NNTr9vkMeQD0fMYGUQMYbAOyQTW1+40XLYt7xj60EceO65584ECxKG2qim8OKLLzbxITiVsZUZVChTnFBbSque2mFLPx988EEzBN2HAMoxFmAVgDH4/5Vw7969VuZid/xYODGEwxAzuABkBlO4CJSW6AGjcJGoTLFsXdgSMbgJgYQNlGFAGh9lXg4Ss9L6arZiar8eo5UA/VSRV/Q6enExhOWJGVwALkSQ8ESd/C6IXqzKaxlIhBKfYhmDBOX1fSWC4WisxPq4idc9CPLZFxoHdWiPuB/96EfNJO7evfuIkVWmymIChyNmcIFUU5iLxDtCYiSml56L6ngbgjyE7uJUnAyFfcqpV01pxFQZxAwOR8zgAvF3512phqL2tjUahCshelr0ytmCxypvhOr26njeiJjB4YgZPOZsMgXEtesKZRPVGOaIfRMxg8MRM7gmSPAuJvJ2WUnUOlNtUOb5tf9d8DbCcsQMQhPllEinxKdYxdS2xFT+NkyNJexHzCCco4p7DiOhw1QZbGsGIqawPDGDC2KTSJZirX52ZRsziAEclpjBylx2cV4EMYTLQb7CvDKXdTJvI8ilmXtMYgSHJWZwzZEJRGghZnDNuSwmEDO6eGIG4VLRMwXPu8jLmcedmEG4NMxZHWQFcThiBuFKEBM4PDGDcGmRAeTSYB1iBuFSghHEBNYlDx2FEBpZGYQQGjGDcKnJpcJ65DIhhNDIyiBcerI6WIesDEIIjawMwpUhK4TDkpVBCKGRlUEIoREzCCE0YgYhhEbMIITQiBmEEBoxgxBCI2YQQmjEDEIIjZhBCKERMwghNGIGIYRGzCCE0IgZhBAaMYMQQiNmEEJoxAxCCI2YQQihETMIITRiBiGERswghNCIGYQQGjGDEEIjZhBCaMQMQgiNmEEIoREzCCE0YgYhhEbMIITQiBmEEBoxgxBCI2YQQmjEDEIIjZhBCKERMwghNGIGIYRGzCCE0IgZhBAaMYMQQiNmEEJoxAxCCI2YQQihETMIITRiBiGERswghNCIGYQQGjGDEEIjZhBCaMQMQgiNmEEIoREzCCE0YgYhhEbMIITQiBmEEBoxgxBCI2YQQmjEDEIIjZhBCKERMwghnHB09P+4C4auqvbM2QAAAABJRU5ErkJggg==;" vertex="1" parent="1">
          <mxGeometry x="231" y="641" width="159.64" height="143" as="geometry" />
        </mxCell>
      </root>
    </mxGraphModel>
  </diagram>
</mxfile>
